<?xml version="1.0" encoding="UTF-8" ?>
<!DOCTYPE svg PUBLIC "-//W3C//DTD SVG 1.1//EN" "http://www.w3.org/Graphics/SVG/1.1/DTD/svg11.dtd">
<svg width="1000pt" height="1000pt" viewBox="0 0 1000 1000" version="1.1" xmlns="http://www.w3.org/2000/svg">
<g id="#ffffffff">
</g>
<g id="#ffb400ff">
<path fill="#ffb400" opacity="1.00" d=" M 483.42 82.53 C 527.68 80.89 572.23 85.92 614.83 98.15 C 684.66 117.89 748.98 156.44 799.60 208.40 C 848.26 258.10 884.27 320.10 903.06 387.08 C 921.79 453.47 923.79 524.49 908.78 591.82 C 896.40 648.05 872.04 701.57 838.01 748.00 C 810.45 785.66 776.55 818.63 738.21 845.21 C 695.25 875.00 646.65 896.63 595.75 908.51 C 564.40 915.76 532.21 919.79 500.00 919.00 C 464.00 919.84 428.01 914.79 393.21 905.74 C 328.41 888.73 267.93 855.72 218.44 810.58 C 168.49 765.29 129.75 707.73 106.68 644.37 C 92.72 606.08 84.36 565.72 82.17 525.02 C 81.89 509.00 81.90 492.97 82.16 476.95 C 86.05 403.68 109.95 331.60 150.50 270.45 C 189.20 211.68 242.99 162.96 305.27 130.22 C 360.09 101.25 421.48 84.90 483.42 82.53 M 481.48 104.72 C 443.89 106.53 406.52 113.51 370.94 125.82 C 304.52 148.60 244.50 189.56 198.89 242.93 C 156.27 292.51 126.19 352.81 112.49 416.75 C 100.54 471.90 100.55 529.59 112.43 584.74 C 121.17 625.41 136.45 664.67 157.44 700.57 C 192.25 760.33 242.99 810.65 302.99 845.02 C 368.07 882.51 444.02 900.71 519.01 896.92 C 575.71 894.37 631.81 879.32 682.19 853.18 C 723.99 831.53 761.90 802.38 793.54 767.52 C 831.41 725.91 860.34 676.18 877.56 622.61 C 898.49 557.75 902.24 487.48 888.49 420.75 C 874.58 352.28 841.86 287.81 795.10 235.93 C 747.69 182.99 685.79 143.13 617.88 122.12 C 573.90 108.38 527.49 102.66 481.48 104.72 Z" />
<path fill="#ffb400" opacity="1.00" d=" M 465.29 265.18 C 471.07 270.07 476.11 275.77 481.52 281.06 C 457.05 306.07 432.07 330.59 407.41 355.41 C 365.92 396.92 324.38 438.39 282.92 479.93 C 282.04 480.74 281.09 481.46 280.15 482.20 C 274.88 476.87 269.43 471.71 264.34 466.20 C 331.28 399.15 398.34 332.22 465.29 265.18 Z" />
<path fill="#ffb400" opacity="1.00" d=" M 265.02 591.99 C 373.61 483.20 482.36 374.56 591.07 265.89 C 596.76 271.11 602.08 276.72 607.54 282.19 C 582.56 307.65 557.12 332.67 531.97 357.96 C 448.95 440.97 365.95 524.00 282.92 606.99 C 282.16 608.15 280.77 608.15 280.00 607.01 C 274.97 602.04 269.98 597.03 265.02 591.99 Z" />
<path fill="#ffb400" opacity="1.00" d=" M 592.43 392.43 C 631.97 352.95 671.40 313.36 711.00 273.94 C 716.66 279.44 722.28 285.00 727.73 290.70 C 582.02 436.35 436.33 582.03 290.69 727.75 C 284.93 722.34 279.39 716.70 273.91 711.02 C 380.02 604.76 486.27 498.64 592.43 392.43 Z" />
<path fill="#ffb400" opacity="1.00" d=" M 719.33 393.33 C 725.00 398.66 730.44 404.23 735.86 409.81 C 627.22 518.53 518.54 627.19 409.84 735.85 C 404.12 730.56 398.63 725.01 393.29 719.35 C 502.02 610.73 610.68 502.03 719.33 393.33 Z" />
<path fill="#ffb400" opacity="1.00" d=" M 712.92 526.92 C 715.53 524.44 717.76 521.51 720.82 519.53 C 725.96 524.85 731.27 529.99 736.45 535.27 C 728.85 543.70 720.44 551.38 712.53 559.53 C 657.87 614.20 603.20 668.86 548.54 723.53 C 544.08 727.82 539.96 732.48 535.26 736.52 C 529.95 731.29 524.71 725.98 519.43 720.72 C 527.42 711.97 536.15 703.91 544.42 695.41 C 600.58 639.25 656.75 583.09 712.92 526.92 Z" />
</g>
</svg>
