<svg xmlns="http://www.w3.org/2000/svg" xmlns:xlink="http://www.w3.org/1999/xlink" version="1.1" width="1000" height="1000" viewBox="0 0 1000 1000" xml:space="preserve">
<desc>Created with Fabric.js 3.5.0</desc>
<defs>
</defs>
<rect x="0" y="0" width="100%" height="100%" fill="rgba(255,255,255,0)"/>
<g transform="matrix(1.0876 0 0 1.0876 499.4908 499.4916)" id="578589">
<path style="stroke: rgb(0,0,0); stroke-width: 0; stroke-dasharray: none; stroke-linecap: butt; stroke-dashoffset: 0; stroke-linejoin: miter; stroke-miterlimit: 4; is-custom-font: none; font-file-url: none; fill: rgb(255,199,22); fill-rule: nonzero; opacity: 1;" vector-effect="non-scaling-stroke" transform=" translate(-455.8741, -470.0427)" d="M 329.95 93.96 C 332.42 89 338.77 88.03 343.7 89.33 C 348.09 90.93 349.43 96 351.79 99.57 C 414.21 106.53 476.74 112.56 539.25 118.74 C 541.82 113.52 545.2 107.67 551.4 106.4 C 557.14 104.55 562.66 107.46 566.89 111.1 C 570.03 115.73 570.91 121.42 570.83 126.9 C 597.28 137.48 623.57 148.45 650.03 158.99 C 655.5 163.15 661.26 154.4 666.38 158.64 C 669.22 160.32 671.21 164.3 675.15 162.92 C 678.98 160.57 682.05 155.51 687.37 157.6 C 693.97 160.25 689.16 169.53 694.41 173.58 C 708.03 188.81 722.63 203.13 737.06 217.6 C 744.42 213.41 754.86 212.25 761.09 218.91 C 766.4 223.83 765.8 231.53 765.38 238.14 C 770.34 240.5 774.99 243.81 780.35 245.23 C 786.57 244.66 794.22 239.08 799.53 244.47 C 804.67 249.04 802.7 256.7 800.09 262.14 C 815.86 283.13 831.28 304.39 846.85 325.53 C 852.33 323.87 858.71 321.67 864.01 324.99 C 870.03 327.32 873.35 333.84 873.8 340 C 873.42 346.45 869.59 352.86 863.68 355.65 C 859.28 357.18 854.48 356.69 849.91 356.54 C 840.61 375.05 830.68 393.28 822.51 412.33 C 827.78 417.54 833.15 425.19 829.83 432.83 C 827.93 441.5 818.74 444.31 811.14 445.63 C 805.74 470.21 801.39 495 796.35 519.65 C 800.8 522.79 806.16 525.46 808.08 530.95 C 810.31 537.16 808.77 544.47 804.3 549.31 C 798.35 554.41 788.61 556.08 782.37 550.47 C 779.68 549.45 777.25 545.43 774.09 547.06 C 756.08 555.8 738.64 565.7 720.48 574.17 C 721.2 580.28 721.26 587.77 716.09 592.1 C 711.64 595.98 705.44 595.53 699.92 595.6 C 696.7 601.57 693.34 607.49 690.67 613.75 C 688.41 618.91 693.64 624.74 690.71 629.68 C 687.69 633.11 682.68 632.38 678.68 631.64 C 675.88 634.64 672.69 637.42 670.46 640.89 C 669.91 644.07 670.82 647.47 669.55 650.55 C 666.54 653.95 660.56 654.14 659.63 659.39 C 654.89 671.57 650.51 684.02 647.61 696.76 C 651.15 701.31 657.22 705.21 655.96 711.99 C 656.25 719.63 647.86 725.07 650.99 732.98 C 654.8 759.17 658.52 785.39 662.22 811.6 C 665.49 813.46 670.24 814.95 670.58 819.38 C 672.82 825.53 666.4 828.26 662.18 830.4 C 662.14 831.02 662.07 832.26 662.03 832.88 C 666.12 835.78 672.33 838.62 670.88 844.9 C 670.03 851.02 660 853.91 656.82 848.2 C 653.58 844.61 655.97 838.33 651.37 835.68 C 638.13 825.2 624.25 815.53 611.13 804.9 C 602.7 798.74 594.78 791.8 585.89 786.35 C 580.71 785.73 575.16 789.6 570.32 786.69 C 566.04 784.18 565.29 778.62 566.14 774.12 C 567.14 770.72 570.23 768.6 572.75 766.36 C 567.79 745.67 562.25 725.13 557.76 704.34 C 551.98 702.13 542.9 700.14 542.47 692.58 C 540.72 686.82 545.21 682.6 547.43 677.93 C 541.92 663.68 533.64 650.6 527.46 636.61 C 523.85 629.28 521.17 621.35 516.46 614.64 C 512.94 613.07 508.76 613.56 505.37 611.57 C 499.83 608.47 499.42 599.94 503.49 595.46 C 504.59 593.51 507.26 591.79 506.46 589.3 C 503.73 579.4 500 569.83 496.83 560.08 C 471.79 559.98 446.74 559.84 421.69 560.2 C 419.48 565.1 417.83 571.05 412.69 573.7 C 404.22 578.65 392.14 574.73 388.35 565.67 C 386.78 560.95 387.45 555.84 387.75 550.98 C 384.16 549.47 380.78 547.33 376.94 546.52 C 371.26 548.98 366.87 554.89 359.96 553.95 C 354.76 554.13 350.48 550.41 347.21 546.79 C 343.98 542.65 344.37 537.09 343.58 532.16 C 333.45 528.62 323.28 525.2 313.08 521.85 C 308.34 527.08 303.01 533.35 294.99 532.02 C 283.82 531.67 277.52 519.17 279.69 509.06 C 247.06 492.65 215.11 474.93 182.33 458.85 C 176.95 465.08 167.87 469.1 160 464.97 C 151.69 461.97 150.24 452.26 149.32 444.62 C 139.39 441.28 129.48 437.89 119.61 434.38 C 114.9 440.19 108.25 446.06 100.12 444.82 C 94.67 443.64 89.06 440.5 87.03 435 C 83.87 428.79 85.94 421.54 89.08 415.78 C 84.1 410.62 79.05 405.53 73.99 400.45 C 66.3 404.92 55.87 407.35 48.03 401.94 C 40.17 397.57 36.77 387.89 38.31 379.31 C 39.87 373.68 43.67 368.79 48.36 365.39 C 53.89 362.19 60.66 362.22 66.85 362.51 C 76.87 336.79 87.3 311.22 97.02 285.38 C 94.73 281.9 91.13 278.59 91.27 274.11 C 91.7 268.3 96.92 263.11 102.86 263.4 C 106.14 263.93 109.06 265.61 112.03 267.01 C 125.08 257.77 138.51 249.1 151.72 240.09 C 150.78 234.45 148.82 228.26 151.95 222.97 C 154.22 217.16 160.86 213.58 167 214.04 C 174.63 212.92 179.58 219.22 184.14 224.18 C 196.06 219.97 208.23 216.47 219.98 211.79 C 220.74 206.79 222.57 200.85 227.62 198.64 C 231.72 197.69 235.94 198.62 239.95 199.57 C 248.84 191 257.06 181.79 265.55 172.83 C 264.98 167.99 262.36 162.28 266.21 158.22 C 269.99 152.47 277.3 154.89 282.9 155.7 C 284.38 154.13 285.87 152.56 287.37 150.99 C 285.95 145.96 283.72 139.54 288.64 135.64 C 292.56 130.59 299.5 133.22 304.86 133.72 C 313.65 125.11 322.09 116.15 330.33 107.01 C 328.86 102.85 327.28 98.01 329.95 93.96 M 350.51 102.38 C 357.29 105.98 364.37 109.08 371.67 111.48 C 376.63 113.38 381.76 109 386.66 111.34 C 391.18 114.01 392.94 119.88 397.81 122.12 C 410.61 127.71 423.68 132.64 436.67 137.77 C 440.98 133.9 447.43 129.41 453.01 133.99 C 458.32 136.42 458.09 143.12 458.77 147.93 C 465.08 151.5 471.36 155.2 478.11 157.91 C 480.51 158.94 482.88 156.85 485.04 156.14 C 503.46 146.85 521.54 136.91 540.12 127.94 C 539.74 125.65 539.37 123.38 539 121.1 C 476.21 114.54 413.42 107.52 350.51 102.38 M 345.5 109.22 C 348.07 115.37 351.15 121.29 354.06 127.28 C 359.65 126.18 365.21 124.99 370.8 123.85 C 371.18 121.67 371.58 119.49 371.97 117.31 C 364.45 113.28 356.87 109.35 349.14 105.74 C 347.93 106.9 346.71 108.06 345.5 109.22 M 305.21 136.28 C 305.89 137.42 306.57 138.57 307.25 139.72 C 314.8 137.64 322.41 135.81 330 133.92 C 332.02 126.02 333.92 118.1 335.96 110.21 C 334.59 109.7 333.23 109.2 331.88 108.69 C 322.64 117.55 314.14 127.13 305.21 136.28 M 337.03 113.98 C 334.84 120.12 334.01 126.65 332.67 133.01 C 339.22 131.39 345.81 129.82 352.34 128.08 C 349.45 121.86 346.39 115.72 343.51 109.5 C 341.27 110.78 337.92 111.21 337.03 113.98 M 370.29 113.53 C 369.42 114.76 371.52 116.05 372.33 114.85 C 373.14 113.65 371.07 112.38 370.29 113.53 M 393.64 123.18 C 396.35 124.81 399.29 126.01 402.33 126.9 C 399.58 125.33 396.66 124.1 393.64 123.18 M 355.93 129.21 C 356.11 130.23 356.3 131.26 356.5 132.29 C 360.62 132.41 364.71 133.01 368.75 133.82 C 370.48 132.14 372.21 130.46 373.96 128.78 C 373.3 127.59 372.64 126.39 371.99 125.2 C 366.67 126.65 361.28 127.91 355.93 129.21 M 393.25 126.17 C 387.98 130.1 382.05 134.31 383.18 141.94 C 400.99 142.01 418.82 142.41 436.61 141.24 C 422.34 135.68 407.71 131.16 393.25 126.17 M 562.92 135.92 C 566.35 142.69 569.75 149.5 573.24 156.25 C 578.42 156.66 582.66 159.61 585.4 163.83 C 608.71 164.06 632.04 164.24 655.35 163.66 C 626.82 151.48 597.98 139.99 569.13 128.61 C 567.07 131.06 564.98 133.49 562.92 135.92 M 352.61 130.16 C 345.58 131.93 338.57 133.76 331.55 135.56 C 331.07 137.72 330.59 139.89 330.12 142.06 C 336.63 141.99 343.15 141.92 349.67 141.82 C 351.45 138.65 353.28 135.5 355.11 132.35 C 354.27 131.62 353.44 130.89 352.61 130.16 M 375.23 130.27 C 373.29 132.05 371.36 133.82 369.42 135.59 C 370.53 137.41 371.54 139.32 372.97 140.92 C 375.21 141.37 379.7 142.29 381.95 142.75 C 381.96 139.56 381.9 136.35 381.91 133.16 C 379.68 132.2 377.45 131.24 375.23 130.27 M 543.46 131.36 C 527.74 141.62 510.66 150.43 496.97 163.44 C 501.69 163.81 506.39 164.03 511.14 164.32 C 521.96 153.38 533.23 142.87 543.46 131.36 M 487.66 156.77 C 491.17 156.62 495.41 160.43 498.86 158 C 511.34 150.26 523.49 141.95 535.14 133 C 519.23 140.75 503.44 148.76 487.66 156.77 M 514.78 163.91 C 524.41 164.01 534.04 163.98 543.68 163.95 C 545.75 154.73 548.18 145.6 550.19 136.37 C 548.37 135.55 546.56 134.7 544.77 133.85 C 534.66 143.76 524.63 153.75 514.78 163.91 M 308.63 141.79 C 315.06 141.98 321.52 142.07 327.93 141.29 C 328.44 140.01 329.47 137.44 329.98 136.16 C 322.82 137.87 315.69 139.73 308.63 141.79 M 556.08 137.22 C 556.04 143.78 556.02 150.34 556.03 156.9 C 559.84 159.7 563.48 162.83 567.84 164.78 C 569.14 162.45 570.5 160.15 571.93 157.9 C 568.26 150.58 564.63 143.25 560.94 135.94 C 559.32 136.37 557.69 136.8 556.08 137.22 M 545.67 163.85 C 548.07 161 550.78 158.43 553.87 156.33 C 553.73 149.64 553.47 142.96 553.1 136.29 C 549.67 145.18 547.86 154.6 545.67 163.85 M 308.03 143.99 C 306.04 148.17 303.76 152.33 303.12 156.99 C 310.32 155.4 317.57 153.86 324.56 151.49 C 326.28 149.38 326.84 146.62 327.76 144.12 C 321.18 144.02 314.6 144.02 308.03 143.99 M 329.53 144.21 C 329.09 146.27 328.65 148.33 328.19 150.39 C 335.42 148.76 342.67 147.06 349.7 144.64 C 342.99 144.09 336.25 144.23 329.53 144.21 M 373.31 144.09 C 371 147.56 368.71 151.05 366.15 154.34 C 370.34 169.98 375.69 185.31 381.55 200.39 C 382.24 181.69 382.17 162.96 381.67 144.26 C 378.91 144.18 376.03 144.11 373.31 144.09 M 384 144 C 384.01 162.91 383.93 181.82 384.09 200.73 C 385.16 201.25 386.24 201.78 387.32 202.31 C 403.15 186.48 418.94 170.58 434.76 154.73 C 438.92 152.23 437.01 147.7 436.35 143.99 C 418.9 144.01 401.45 143.99 384 144 M 327.29 153.06 C 326.05 158.93 324.59 164.75 323.15 170.57 C 325.18 171.71 327.19 172.88 329.19 174.08 C 336.2 167.17 343.65 160.65 350.03 153.11 C 351.97 151.57 350.99 149.03 351.05 146.96 C 343.14 149 335.2 151 327.29 153.06 M 455.88 149.73 C 458.24 152.61 460.71 155.39 463.15 158.21 C 465.86 157.68 468.56 157.11 471.27 156.56 C 466.2 154.15 461.09 151.81 455.88 149.73 M 289.5 151.71 C 287.57 153.79 285.64 155.86 283.71 157.94 C 284.2 159.16 284.69 160.39 285.19 161.61 C 289.15 160.6 293.09 159.46 296.88 157.94 C 294.65 155.6 292.13 153.57 289.5 151.71 M 354.06 152.47 C 346.36 160.11 338.66 167.74 331.17 175.58 C 334.02 180.58 335.37 186.24 335.72 191.96 C 347.22 195.85 358.64 200.01 370.15 203.89 C 373.26 205.24 376.47 203.9 379.31 202.55 C 374.37 186.78 369.42 171.01 363.8 155.46 C 360.51 154.58 357.25 153.61 354.06 152.47 M 440 152.55 C 423.07 169.35 406.29 186.29 389.37 203.09 C 390.08 205.66 390.65 208.19 391.35 210.79 C 426.07 222.63 460.77 234.53 495.6 246.05 C 498.08 243.22 500.57 240.38 503.19 237.66 C 499.98 230.91 496.61 224.23 493.02 217.68 C 489.78 216.56 485.56 216.68 483.24 213.74 C 481.53 208.87 485.57 203.23 482.47 198.65 C 472.95 183.73 462.34 169.53 453.11 154.41 C 448.65 154.63 444.21 153.99 440 152.55 M 297.99 153.96 C 298.01 155.35 298.02 156.75 298.04 158.16 C 299.26 157.92 300.47 157.68 301.69 157.44 C 301.45 156.33 301.21 155.22 300.98 154.11 C 300.23 154.07 298.74 153.99 297.99 153.96 M 305.66 158.34 C 307.38 162.59 309.21 166.79 311.01 171.02 C 314.52 170.45 318 169.91 321.53 169.42 C 322.74 164.22 323.97 159.03 325.14 153.83 C 318.62 155.22 312.14 156.81 305.66 158.34 M 456.06 153.81 C 458.05 156.66 460.03 159.57 462.23 162.27 C 460.79 159.05 458.35 156.44 456.06 153.81 M 297.02 160.92 C 296.97 165.82 296.88 170.71 296.82 175.61 C 298.8 176.36 300.76 177.27 302.88 177.58 C 305.42 176.26 307.33 174.06 309.46 172.19 C 307.34 167.8 305.2 163.43 303.05 159.06 C 301.04 159.69 299.03 160.3 297.02 160.92 M 286.07 163.26 C 286.03 165 285.93 168.48 285.88 170.22 C 289.04 171.51 292.2 172.85 295.41 174.03 C 295.39 169.76 295.4 165.5 295.26 161.24 C 292.2 161.95 289.14 162.63 286.07 163.26 M 475.98 163.11 C 478.32 163.19 480.67 163.19 483.02 163.11 C 480.78 161.69 478.22 161.69 475.98 163.11 M 498.56 166.72 C 501.29 167.74 504.06 168.64 506.85 169.48 C 507.3 168.28 507.75 167.09 508.2 165.9 C 505.02 166.16 501.69 166.41 498.56 166.72 M 508.17 170.19 C 513.38 171.72 518.43 174.54 523.91 174.8 C 530.75 173.04 537.22 170.09 543.64 167.16 C 534.81 166.13 525.89 165.5 517.02 166.14 C 513.21 165.36 510.7 168.07 508.17 170.19 M 584.53 166.57 C 595.73 171.04 607.31 174.44 618.61 178.65 C 621.47 179.56 624.33 180.96 627.39 181.13 C 631.58 181.1 634.51 177.81 638.38 176.84 C 641.73 176.43 645.18 177.33 648.56 176.92 C 651.89 175.49 654.23 172.49 657.13 170.4 C 655.17 168.41 653.23 165.67 650.07 165.99 C 628.23 165.77 606.36 165.75 584.53 166.57 M 669.04 169.35 C 671.37 169.42 673.71 169.44 676.05 169.44 C 675.9 168.32 675.61 166.07 675.46 164.95 C 673.19 166.31 671.13 167.77 669.04 169.35 M 563.23 168.85 C 559.47 170.92 555.82 173.83 554.85 178.31 C 556.62 178.98 558.4 179.66 560.17 180.33 C 563.58 176.85 566.97 173.35 570.32 169.8 C 567.97 169.4 565.62 168.78 563.23 168.85 M 476.58 168.96 C 480.54 171.89 484.64 174.67 488.75 177.41 C 488.83 175.93 488.92 174.46 489.01 172.98 C 485.01 171.23 480.9 169.67 476.58 168.96 M 496.1 169.18 C 498.36 171.56 501.55 172.7 504.77 171.82 C 502 170.57 499.1 169.67 496.1 169.18 M 545.42 168 C 543.93 172.3 542.53 176.63 541.08 180.95 C 542.43 181.68 543.78 182.41 545.14 183.14 C 546.72 179.31 549.33 175.72 549.71 171.51 C 548.45 170.15 546.9 169.09 545.42 168 M 582.96 168.7 C 583.29 169.79 583.62 170.88 583.97 171.98 C 591.4 173.59 598.78 175.56 606.29 176.85 C 598.83 173.31 590.8 171.19 582.96 168.7 M 526.66 176.66 C 530.96 178.14 535.36 179.36 539.8 180.35 C 540.21 177.22 540.57 174.08 541.01 170.96 C 536.2 172.79 531.4 174.67 526.66 176.66 M 676.16 171.52 C 676.15 172.35 676.14 174.01 676.13 174.84 C 677.64 175.59 679.15 176.35 680.67 177.1 C 681.08 175.6 681.51 174.09 681.95 172.59 C 680.02 172.19 678.1 171.83 676.16 171.52 M 280.27 176.97 C 280.97 183.01 283.88 188.52 285.8 194.23 C 288.07 193.67 292.6 192.56 294.86 192 C 295.15 186.93 295.47 181.86 295.89 176.79 C 292.06 175.03 288.27 172.99 284.15 172.06 C 282.47 173.22 279.87 174.56 280.27 176.97 M 505.3 172.32 C 508.97 174.52 513.15 175.62 517.38 176.04 C 513.6 174.12 509.54 172.72 505.3 172.32 M 562.05 182.03 C 562.16 185.44 563.96 188.15 568.3 185.53 C 570.76 181.19 571.92 176.27 572.93 171.43 C 569.06 174.69 565.07 177.93 562.05 182.03 M 649.63 181.2 C 654.09 179.44 658.25 177.02 662.39 174.61 C 660.83 173.59 659.27 172.58 657.72 171.58 C 654.92 174.7 652.21 177.91 649.63 181.2 M 688.08 171.63 C 690.78 179.21 692.9 188.18 700.25 192.73 C 711.62 201.07 722.67 209.84 734.05 218.17 C 719.2 202.23 704.67 185.82 688.08 171.63 M 468.58 173.24 C 471.63 178.84 475.19 184.13 478.96 189.27 C 476.81 183.78 474.28 178.45 471.92 173.06 C 471.08 173.11 469.41 173.2 468.58 173.24 M 473.87 172.59 C 476.09 178.12 478.85 183.41 481.71 188.64 C 482.03 186.24 482.64 183.82 482.38 181.4 C 480.17 177.94 476.93 175.26 473.87 172.59 M 492.01 172.2 C 491.81 174.19 491.41 178.17 491.21 180.16 C 494.47 179.44 497.5 178 500.21 176.06 C 497.57 174.61 494.77 173.33 492.01 172.2 M 548.7 181.49 C 551.99 179.5 555.4 177.04 553.71 172.16 C 551.66 175.05 550.02 178.21 548.7 181.49 M 574.93 172.98 C 573.64 177.32 572.3 181.64 570.9 185.94 C 573.73 185.94 579.41 185.95 582.24 185.95 C 580.83 181.64 579.46 177.35 577.98 173.07 C 577.22 173.05 575.7 173 574.93 172.98 M 580.17 172.89 C 581.57 177.23 582.82 181.6 584.12 185.99 C 599.53 186.02 614.95 186.15 630.36 185.59 C 613.71 181.01 596.94 176.95 580.17 172.89 M 671.31 173.53 C 668.55 174.92 665.82 176.33 663.25 178.01 C 665.93 176.55 668.67 175.1 671.31 173.53 M 683.36 179.43 C 685.3 181.5 687.74 183.02 690.11 184.56 C 688.98 180.12 687.38 175.78 684.99 171.85 C 684.17 174.31 683.49 176.82 683.36 179.43 M 240.85 201.8 C 241.33 202.91 241.82 204.01 242.3 205.12 C 249.13 203.57 255.92 201.83 262.68 199.96 C 265.11 191.69 268.07 183.58 270.29 175.25 C 269.67 174.87 268.43 174.09 267.82 173.71 C 258.49 182.75 249.77 192.37 240.85 201.8 M 479.79 174.1 C 481.16 176.11 482.54 178.12 483.93 180.13 C 484.82 179.95 486.61 179.59 487.5 179.41 C 484.94 177.62 482.33 175.86 479.79 174.1 M 502.08 175.66 C 503.16 176.67 504.24 177.69 505.42 178.6 C 507.77 180.98 511.08 178.67 513.7 177.96 C 509.83 177.14 505.95 176.38 502.08 175.66 M 664.17 183.02 C 663.61 208.45 663.9 233.92 664.4 259.35 C 669.99 232.77 675.63 206.15 680.14 179.37 C 677.71 177.77 675.31 176.16 672.91 174.56 C 670.14 177.42 665.59 179.17 664.17 183.02 M 272.79 176.09 C 269.91 183.7 267.31 191.4 264.82 199.14 C 271.01 197.82 277.19 196.4 283.36 194.96 C 281.46 188.69 279.63 182.39 277.16 176.32 C 275.7 176.26 274.25 176.17 272.79 176.09 M 297.46 178.22 C 297.54 182.48 297.8 186.72 298.02 190.98 C 298.73 190.98 300.15 190.98 300.86 190.98 C 301.21 187.29 301.6 183.6 302.02 179.92 C 300.5 179.34 298.98 178.77 297.46 178.22 M 496.51 182.97 C 499.16 182.64 501.79 182.23 504.42 181.78 C 503.29 180.29 502.13 178.81 500.96 177.34 C 499.43 179.19 497.94 181.06 496.51 182.97 M 651.47 187.82 C 655.77 185.48 659.96 182.53 662.53 178.27 C 657.49 179.38 651.64 181.72 651.47 187.82 M 508.12 182.24 C 516.38 189.67 528.93 184.56 538.82 185.21 C 529.53 180.3 517.99 177.39 508.12 182.24 M 682.28 181.47 C 676.68 207.33 671.57 233.32 667.04 259.39 C 670.39 261.34 673.25 264.24 676.94 265.59 C 690.13 260.36 702.37 252.9 715.22 246.86 C 708.39 228.8 701.15 210.9 694.05 192.95 C 692.11 187.48 686.55 184.85 682.28 181.47 M 500.19 185.22 C 503.37 185.21 506.56 185.13 509.75 184.96 C 506.65 183.42 503.22 183.59 500.19 185.22 M 644.93 198.16 C 650.7 218.63 653.48 240.13 661.25 259.96 C 662.86 234.74 661.92 209.41 661.61 184.16 C 655.27 187.86 650.64 193.67 644.93 198.16 M 497.65 188.29 C 502.42 192.64 508.4 195.33 514.2 198.04 C 509.03 194.34 504.12 189.45 497.65 188.29 M 504.45 187.8 C 509.32 191.87 514.73 195.24 520.33 198.19 C 516.51 192.8 512.03 186.81 504.45 187.8 M 514.78 188.14 C 517.57 191.05 520.36 193.96 523.15 196.89 C 527.75 195.27 532.34 193.63 536.95 191.98 C 536.97 190.65 536.99 189.31 537.02 187.98 C 529.6 188.02 522.19 188.07 514.78 188.14 M 540.16 188.04 C 538.26 188.44 538.88 191.63 540.84 190.96 C 542.73 190.56 542.11 187.36 540.16 188.04 M 561.77 190.85 C 562.68 192.63 563.92 194.23 565.14 195.83 C 566.1 192.89 567 189.93 567.81 186.95 C 565.6 188.15 563.55 189.16 561.77 190.85 M 569.91 188.01 C 569.05 191.16 567.65 194.28 567.69 197.59 C 573.33 205.54 580.83 211.94 587.37 219.13 C 589.02 218.38 590.66 217.63 592.32 216.88 C 589.39 207.19 586.02 197.65 582.81 188.06 C 578.51 188.04 574.18 188.02 569.91 188.01 M 584.84 188.08 C 587.86 197.24 591.04 206.34 594.07 215.5 C 599.16 215.54 604.14 216.78 608.82 218.74 C 616.69 210.91 624.34 202.86 632.27 195.09 C 631.43 192.76 630.62 190.42 629.84 188.08 C 614.84 187.97 599.84 187.97 584.84 188.08 M 539.64 200.41 C 542.93 197.45 545.77 194.04 548.49 190.55 C 543.29 191.2 540.47 195.61 539.64 200.41 M 493.86 194.48 C 494.93 198.11 496.08 201.72 497.21 205.34 C 502.32 203.75 507.44 202.14 512.44 200.22 C 508.16 196.68 502.93 194.55 498.14 191.82 C 496.71 192.71 495.28 193.59 493.86 194.48 M 298.08 192.65 C 298.15 194.35 298.3 197.74 298.38 199.44 C 300.18 197.77 301.95 196.06 303.66 194.28 C 301.8 193.72 299.94 193.17 298.08 192.65 M 484.01 192.45 C 485.47 195.53 486.98 198.6 488.71 201.55 C 488.9 197.6 487.15 194.51 484.01 192.45 M 696.15 192.75 C 703.29 210.29 709.74 228.11 717.17 245.54 C 722.38 243.21 727.48 240.66 732.61 238.14 C 732.66 232.21 732.76 226.27 733.65 220.4 C 721.11 211.24 709.2 201.2 696.15 192.75 M 294.52 193.28 C 292.71 194.11 289.08 195.78 287.26 196.62 C 287.3 199.6 288.22 202.46 288.93 205.33 C 290.96 204.21 292.99 203.07 295.03 201.96 C 294.87 199.06 294.7 196.17 294.52 193.28 M 332.17 193.93 C 345.18 206.48 361.76 214.66 376.35 225.19 C 380.62 217.17 375.31 206.18 366.34 204.63 C 355.08 200.68 343.92 196.18 332.17 193.93 M 556.06 195.18 C 556.02 202.13 556 209.08 555.99 216.03 C 556.74 216 558.23 215.95 558.97 215.93 C 561.26 208.73 564.54 201.23 561.78 193.74 C 559.87 194.22 557.97 194.71 556.06 195.18 M 524.24 199.87 C 528.65 199.22 532.76 197.42 536.61 195.23 C 532.15 195.6 527.74 196.99 524.24 199.87 M 544.68 210.69 C 547.09 213.19 550.84 213.59 554.01 214.63 C 553.93 207.71 553.66 200.79 553.34 193.88 C 548.65 198.07 542.49 203.87 544.68 210.69 M 491.37 195.67 C 491.2 197.45 491.04 199.23 490.88 201.02 C 491.7 201 493.33 200.95 494.15 200.93 C 493.23 199.17 492.31 197.41 491.37 195.67 M 633.77 195.89 C 626.5 203 619 209.96 612.64 217.93 C 621.77 211.89 630.27 204.94 639.08 198.42 C 637.3 197.59 635.53 196.74 633.77 195.89 M 264.29 202.28 C 261.52 206.82 260.51 212.25 258.69 217.24 C 261.63 218.08 264.55 219.4 267.66 219.35 C 274.62 215.89 280.84 211.09 287.37 206.9 C 286.29 203.51 285.18 200.14 284.06 196.76 C 277.61 198.82 270.17 198.81 264.29 202.28 M 297.3 206.31 C 297.06 209.66 297.37 213.02 297.61 216.36 C 305.23 215.73 306.36 207.5 309.4 202.12 C 307.44 200.58 305.5 199.02 303.58 197.44 C 301.29 200.19 297.32 202.36 297.3 206.31 M 311.12 203.51 C 309.15 207.65 306.71 211.64 305.46 216.06 C 307.18 222.05 313.37 226.77 311.5 233.57 C 310.9 238.13 307.39 241.44 304.31 244.53 C 307.43 250.84 310.59 257.13 313.92 263.33 C 318.72 263.28 323.12 265.3 327.73 266.27 C 341.8 257.74 355.36 248.22 368.91 238.85 C 373.44 236.66 373.9 231.46 375.42 227.29 C 361.06 217.53 346.8 207.63 332.19 198.26 C 326.06 202.9 318.74 204.44 311.12 203.51 M 541.96 201.11 C 542.31 201.62 543 202.65 543.35 203.17 C 544.31 201.45 545.26 199.74 546.19 198.01 C 544.77 199.03 543.36 200.07 541.96 201.11 M 611.59 221.94 C 612.41 227.64 611.38 233.64 612.97 239.17 C 624.46 248.84 637.8 256.15 650.17 264.67 C 652.7 262.93 655.25 261.18 657.83 259.5 C 653.15 239.09 648.04 218.77 642.72 198.51 C 632.03 205.9 621.83 213.96 611.59 221.94 M 560.61 217.4 C 568.52 219.39 576.12 222.42 583.81 225.12 C 584.61 223.7 585.41 222.29 586.22 220.87 C 580.04 213.62 573.47 206.71 566.45 200.27 C 564.27 205.9 562.4 211.64 560.61 217.4 M 498.62 207.73 C 506.57 207.92 514.53 207.86 522.49 207.78 C 522.68 206.95 523.06 205.31 523.25 204.48 C 514.97 200.84 506.26 203.93 498.62 207.73 M 241.84 211.17 C 246.84 212.95 251.85 214.71 256.91 216.35 C 258.42 211.83 259.96 207.31 261.36 202.75 C 254.55 204.55 245.52 203.96 241.84 211.17 M 289.73 207.29 C 290.77 210.26 291.88 213.21 293 216.16 C 293.65 215.96 294.95 215.55 295.6 215.35 C 295.53 211.57 295.46 207.78 295.18 204 C 293.36 205.1 291.55 206.2 289.73 207.29 M 270.61 220.39 C 274.36 221.99 278.13 223.56 281.89 225.16 C 284.32 221.97 287.53 219.3 289.48 215.74 C 289.62 213.32 288.91 210.95 288.46 208.59 C 282.4 212.34 276.53 216.41 270.61 220.39 M 498.63 210.4 C 508 214.07 517.56 217.23 527.16 220.26 C 525.31 216.87 523.46 213.48 521.81 209.99 C 514.08 210.06 506.35 210.18 498.63 210.4 M 386.22 216.42 C 391.54 231.73 395.51 247.52 401.76 262.48 C 405.7 267.22 411.94 272.93 418.67 270.8 C 444.09 265.39 469.58 260.3 495.03 255.05 C 494.99 253.33 494.91 249.9 494.86 248.18 C 460.4 236.02 425.59 224.89 391.1 212.81 C 389.48 214.02 387.86 215.23 386.22 216.42 M 183.99 226.22 C 184.13 227.41 184.28 228.6 184.43 229.79 C 197.6 230.11 210.77 230.02 223.94 229.95 C 225 226.4 226.13 222.87 227.2 219.33 C 225.1 217.48 223.02 215.61 220.93 213.76 C 208.64 218 196.29 222.04 183.99 226.22 M 240.46 214.23 C 242.14 216.8 243.92 219.29 245.7 221.8 C 249.24 220.63 252.8 219.61 256.42 218.67 C 251.2 216.87 245.96 214.93 240.46 214.23 M 494.86 214.83 C 497.78 221.84 501.07 228.7 504.79 235.32 C 503.2 227.98 500.45 220.95 498.01 213.87 C 497.22 214.11 495.65 214.59 494.86 214.83 M 500.09 213.56 C 502.43 220.98 504.94 228.33 507.35 235.73 C 511.14 236.07 514.96 236.44 518.77 236.81 C 521.09 231.9 523.48 227.02 525.89 222.15 C 517.26 219.37 508.79 216.1 500.09 213.56 M 541.66 214.6 C 543.14 217.3 545.02 219.74 546.78 222.28 C 549.12 221.39 551.47 220.51 553.84 219.68 C 553.89 219 553.97 217.65 554.01 216.97 C 550.02 215.67 545.94 214 541.66 214.6 M 232.21 229.92 C 235.47 229.95 238.7 229.93 241.98 229.96 C 242.8 227.42 243.61 224.86 244.36 222.29 C 242.92 221.07 240.04 218.61 238.6 217.39 C 233.81 219.82 232.79 224.91 232.21 229.92 M 378.92 223.08 C 379.98 222.74 381.04 222.4 382.11 222.06 C 381.93 220.59 381.75 219.13 381.57 217.67 C 380.66 219.46 379.79 221.27 378.92 223.08 M 384.18 218.98 C 383.04 219.87 383.37 222.23 384.87 222.54 C 386.91 222.38 386.07 218.39 384.18 218.98 M 534.16 220.36 C 534.12 221.02 534.05 222.32 534.01 222.98 C 537.76 224.08 541.51 225.2 545.32 226.1 C 545.49 225.36 545.83 223.9 546.01 223.16 C 544.03 221.46 542.07 219.75 540.12 218.06 C 538.14 218.85 536.15 219.62 534.16 220.36 M 556.17 218.17 C 555.64 219.79 556.2 220.35 557.83 219.83 C 558.34 218.2 557.79 217.65 556.17 218.17 M 257.24 219.26 C 259.52 221.4 262.4 222.73 265.56 222.06 C 262.88 220.88 260.1 219.93 257.24 219.26 M 559.78 219.06 C 562.24 222.75 564.81 226.38 567.08 230.21 C 572.71 229.82 578.35 229.36 583.99 228.84 C 576.45 224.37 568.08 221.65 559.78 219.06 M 225.66 229.81 L 231.18 230.02 C 230.9 227.36 230.33 222.03 230.05 219.37 C 228.44 222.79 227.06 226.3 225.66 229.81 M 262.91 224.66 C 263.6 226.44 264.29 228.21 264.98 229.99 C 270.32 229.98 275.67 229.98 281.02 230 C 280.99 228.69 280.96 227.38 280.94 226.08 C 275.02 224.66 268.77 221.48 262.91 224.66 M 522.86 233.3 C 525.72 230.22 528.03 226.59 528.98 222.45 C 526.63 225.88 524.58 229.51 522.86 233.3 M 532.08 223.97 C 528.85 228.75 525.66 233.57 522.39 238.32 C 523.73 240.24 525.08 242.17 526.42 244.1 C 532.28 241.37 538.06 238.5 543.93 235.79 C 543.91 233.27 543.89 230.76 543.87 228.26 C 539.93 226.85 535.99 225.42 532.08 223.97 M 184.64 232.15 C 183.46 235.83 182 239.4 180.3 242.87 C 187.95 250.43 195.57 258.03 203.13 265.69 C 206.4 264.4 209.92 263.61 212.95 261.79 C 217.59 252.34 219.62 241.91 223.14 232.04 C 210.3 231.97 197.47 231.98 184.64 232.15 M 224.07 235.96 C 220.48 245.37 217.98 255.18 214.77 264.73 C 215.81 265.09 216.84 265.47 217.88 265.84 C 222.28 261.24 226.74 256.69 231.21 252.16 C 231.04 245.1 230.83 238.04 230.58 230.99 C 228.03 232.13 225 233.07 224.07 235.96 M 232.94 232.02 C 233.05 237.83 233.16 243.63 233.33 249.44 C 236.38 246.44 239.65 243.63 242.35 240.3 C 244.4 237.92 242.92 234.66 242.66 231.93 C 239.43 231.98 236.16 231.97 232.94 232.02 M 263.72 231.96 C 263.48 234.83 261.54 238.42 264.23 240.7 C 272.93 249.96 282.35 258.53 291.13 267.72 C 292.41 267.42 293.7 267.11 294.99 266.82 C 295.7 260.36 295.94 253.87 296.07 247.38 C 292.44 245.64 288.78 243.86 285.61 241.37 C 283.05 238.85 281.92 235.34 280.52 232.14 C 274.92 232.06 269.31 232.02 263.72 231.96 M 565.52 231.94 C 565.27 234.83 563.67 238.38 566.22 240.71 C 575.04 249.94 584.4 258.64 593.03 268.07 C 594.34 267.35 595.67 266.64 597 265.92 C 596.95 259.5 596.88 253.08 596.8 246.67 C 593.31 245.25 589.3 244.27 586.83 241.21 C 584.91 238.41 583.62 235.27 582.25 232.2 C 576.66 232.09 571.08 232.02 565.52 231.94 M 388.83 234.49 C 387.52 242.66 393.15 249.59 396.85 256.32 C 395.26 248.69 392.24 241.46 388.83 234.49 M 368.18 257.3 C 372.1 250.56 375.49 243.47 377.99 236.08 C 370.68 240.43 370.91 250.23 368.18 257.3 M 544.1 238.15 C 538.35 239.27 533.39 242.99 528.01 245.19 C 528.46 248.79 528.87 252.37 529.25 255.99 C 545.48 260.25 561.67 264.74 578.09 268.25 C 572.54 259.24 566.64 250.47 560.81 241.66 C 555.06 241.5 549.46 240.15 544.1 238.15 M 366.03 267 C 367.42 269.61 368.78 272.23 370.1 274.88 C 374.64 272.38 378.41 268.72 381.76 264.83 C 382.5 255.93 381.84 246.99 381.32 238.1 C 374.54 246.73 371.31 257.48 366.03 267 M 384.41 238.31 C 384.12 247.5 383.05 256.91 385.18 265.96 C 387.92 269.67 391.37 272.9 395.44 275.13 C 396.64 271.64 399.8 267.9 397.98 264.07 C 394.09 255.17 389.49 246.58 384.41 238.31 M 233.42 253.32 C 232.12 264.02 233.2 274.92 233.74 285.67 C 239.91 270.8 244.38 255.26 249.14 239.9 C 241.96 241.14 237.16 247.63 233.42 253.32 M 257.28 240.99 C 254.56 241.84 250.67 241.62 249.9 244.9 C 245.17 258.38 240.58 271.93 236.77 285.7 C 238.73 287.64 240.61 289.66 242.42 291.74 C 257.51 286.49 272.85 281.92 287.78 276.19 C 288.38 273.83 289.03 271.49 289.7 269.16 C 280.19 260.11 271.6 250.09 261.56 241.61 C 260.49 239.91 258.73 240.78 257.28 240.99 M 371.32 240.04 C 356.67 249.56 342.37 259.61 327.74 269.18 C 328.48 270.81 329.24 272.44 330 274.07 C 337.36 273.92 344.71 273.75 352.08 273.5 C 354.73 269.57 358.89 267.28 362.54 264.47 C 366.61 256.79 368.74 248.28 371.32 240.04 M 717.92 247.3 C 719.33 251.47 720.84 255.61 722.3 259.77 C 726.1 259.74 729.92 259.77 733.74 259.82 C 735.87 255.22 738.11 250.67 740.3 246.1 C 738.12 244.01 735.99 241.88 733.9 239.71 C 728.58 242.25 723.26 244.81 717.92 247.3 M 760.17 244.98 C 762.47 249.97 765.45 254.62 768.2 259.4 C 772.57 258.3 776.86 256.86 781.06 255.21 C 781.01 253.45 780.93 249.92 780.89 248.15 C 775 245.32 769.3 242.11 763.43 239.27 C 762.24 241.11 760.87 242.88 760.17 244.98 M 598.86 246.57 C 598.81 252.8 599.18 259.01 599.96 265.18 C 602.11 268.31 604.95 270.88 607.35 273.83 C 620.47 274.01 633.59 274.03 646.72 273.93 C 647.45 271.35 648.22 268.79 648.99 266.23 C 637.22 258.65 625.79 250.58 614.15 242.81 C 609.07 239.19 603.82 245.35 598.86 246.57 M 112.96 268.37 C 113.26 270.25 113.59 272.13 113.95 274.01 C 119.12 273.93 124.29 273.85 129.47 273.78 C 131.09 270.36 132.63 266.86 134.81 263.76 C 139.28 259.07 145.96 259.66 151.84 259.63 C 154.04 254.85 156.34 250.12 158.43 245.3 C 156.63 244.12 154.83 242.95 153.02 241.79 C 139.5 250.4 126.48 259.76 112.96 268.37 M 563.72 242.01 C 569.47 251.57 575.86 260.72 582.02 270.03 C 585.28 270.19 588.43 270.31 591.73 270.48 C 583.37 260.09 573.7 250.82 563.72 242.01 M 178.55 244.34 C 175.13 245.88 171.63 247.26 168.07 248.49 C 168.07 256.89 168.12 265.29 168.29 273.69 C 178.65 273.96 189.01 274.01 199.38 274.06 C 199.82 271.54 200.57 269.01 200.37 266.43 C 193.84 258.38 185.94 251.58 178.55 244.34 M 296.82 247.02 C 297.02 251.76 296.94 256.53 297.57 261.25 C 298.44 266.47 302.39 270.14 305.33 274.24 C 307.52 271.08 309.69 267.89 311.96 264.79 C 308.88 258.09 305.68 251.44 302.11 244.99 C 300.34 245.66 298.58 246.34 296.82 247.02 M 160.28 246.97 C 158.39 251.54 155.13 255.81 154.52 260.75 C 156.89 265.22 159.91 269.34 162.18 273.89 C 163.45 273.93 164.73 273.98 166 274.03 C 165.98 265.39 165.97 256.76 165.95 248.13 C 164.06 247.75 162.17 247.35 160.28 246.97 M 741.99 247.2 C 739.66 251.76 737.36 256.32 735.05 260.87 C 737.51 263.25 739.83 265.77 742.08 268.36 C 748.98 266.36 755.71 263.84 762.43 261.31 C 760.25 256.65 758.03 252.01 755.83 247.37 C 751.22 247.6 746.59 247.4 741.99 247.2 M 676.96 268.33 C 677.6 270.23 678.26 272.12 678.93 274.02 C 689.7 274.01 700.48 273.98 711.27 273.79 C 712.92 268.44 716.19 263.88 720.47 260.28 C 719 256.4 717.56 252.51 715.98 248.67 C 702.96 255.2 690.2 262.24 676.96 268.33 M 759.9 250.93 C 761.77 254.46 764.04 257.74 766.36 260.99 C 764.58 257.42 762.15 254.19 759.9 250.93 M 219.75 266.99 C 221.02 274.12 219.05 281.74 223.52 288.13 C 226.01 287.05 228.51 286 231.01 284.96 C 231 275.15 230.94 265.33 230.69 255.53 C 227.02 259.33 223.4 263.17 219.75 266.99 M 411.57 274.1 C 410.49 279.59 413.5 284.14 417.54 287.61 C 421.25 286.48 425.19 285.01 429.12 285.84 C 433.39 287.03 435.39 291.39 437.46 294.89 C 449.72 295.03 461.99 295.03 474.26 294.8 C 475.85 290.85 477.4 286.61 481.07 284.07 C 485.47 279.98 491.49 281.46 496.85 281.68 C 498.94 277.16 501.06 272.66 503.15 268.14 C 500.19 264.54 497.32 260.87 494.56 257.13 C 466.93 262.99 439.22 268.39 411.57 274.1 M 527.3 258.58 C 545.24 269.99 565.15 277.94 583.89 287.94 C 584.94 286.72 587.04 284.3 588.09 283.09 C 585.38 279.07 582.68 275.04 579.99 271.02 C 562.36 267.15 545.23 261 527.3 258.58 M 769.25 261.74 C 771.03 262.51 772.79 263.41 774.74 263.72 C 777.4 261.92 780.01 259.98 782.53 257.95 C 777.93 258.5 773.5 259.93 769.25 261.74 M 527.04 261.74 C 525.76 262.86 523.19 265.11 521.91 266.24 C 529.94 278.36 537.92 290.52 545.98 302.63 C 553.03 301.38 560.41 301.32 566.86 304.79 C 571.81 299.73 576.78 294.67 581.5 289.38 C 563.28 280.3 545.52 270.3 527.04 261.74 M 766.17 262.17 C 765.64 263.79 766.19 264.35 767.83 263.83 C 768.34 262.2 767.79 261.65 766.17 262.17 M 779.04 266.33 C 780.91 273.44 782.81 280.54 786.22 287.12 C 787.68 286.26 789.21 285.49 790.55 284.44 C 791.23 277.48 791.11 270.46 791.22 263.48 C 786.79 261.96 782.44 263.03 779.04 266.33 M 796.91 262.36 C 799.34 274.1 803.5 285.4 807.36 296.73 C 808.22 303.11 814.41 305.64 818.82 309.31 C 827.15 316.45 835.49 323.76 845.06 329.23 C 843.17 322.02 837.64 316.48 833.48 310.55 C 821.04 294.68 810.17 277.56 796.91 262.36 M 741.86 270.9 C 742.02 271.61 742.35 273.04 742.51 273.75 C 747.82 273.81 753.15 273.82 758.49 273.83 C 760.22 270.35 762.26 267.04 764.24 263.7 C 756.51 265.16 749.2 268.17 741.86 270.9 M 793.43 263.61 C 793.21 270.55 793.12 277.5 793.1 284.46 C 800.21 286.9 802.68 294.23 805.9 300.33 C 802.8 287.76 798.81 275.39 793.43 263.61 M 504.94 269.26 C 502.74 273.65 500.55 278.05 498.36 282.45 C 503.36 287.42 506.86 293.72 506.79 300.97 C 517.37 304.73 528.07 308.11 538.67 311.8 C 540.67 309.4 542.7 307.03 544.76 304.68 C 536.81 292.53 528.92 280.33 520.93 268.21 C 515.66 269.25 510.29 269.31 504.94 269.26 M 583.46 271.6 C 585.74 275.11 588.35 278.38 591 281.63 C 590.6 279.22 590.3 276.77 589.41 274.48 C 587.7 273.04 585.46 272.46 583.46 271.6 M 605.03 276.78 C 609.36 281.11 614.15 285.77 620.08 287.61 C 629.31 285.94 637.84 281.33 646.87 278.78 C 646.91 278.1 646.99 276.74 647.03 276.07 C 633.02 275.77 618.98 274.88 605.03 276.78 M 678.47 276.25 C 677.33 279.25 676.09 282.2 674.79 285.14 C 679.22 289.77 683.54 294.55 688.44 298.72 C 697.85 295.15 705.02 287.2 713.96 282.61 C 713.23 280.33 712.5 278.04 711.81 275.75 C 700.7 275.15 689.57 276.06 678.47 276.25 M 741.07 276.43 C 744.14 278.84 747.69 281.39 751.76 281.32 C 754.73 280.29 756.96 277.91 759.25 275.85 C 753.18 275.49 747.06 275.27 741.07 276.43 M 112.51 276.98 C 112.98 279.58 114.21 282.01 116.94 283.04 C 130.42 292.72 144.7 301.25 158.06 311.13 C 159.08 310.33 160.1 309.53 161.13 308.74 C 158.11 302.28 154.96 295.88 151.84 289.47 C 146.6 289.37 140.47 290.55 136.24 286.76 C 133.49 283.5 131.6 279.63 129.57 275.91 C 123.87 276.07 118.15 276.18 112.51 276.98 M 161 276 C 161 276.5 161 277.5 161 278 C 162.66 278 164.33 278 166 278 C 166 277.5 166 276.5 166 276 C 164.33 276 162.66 276 161 276 M 166.79 277.02 C 175.93 283.76 188.09 283.64 198.73 286.5 C 200.14 283.11 200.39 279.44 199.75 275.84 C 188.75 275.9 177.75 276.05 166.79 277.02 M 304.17 276.08 C 303.86 277.22 303.54 278.36 303.22 279.51 C 304.51 280.67 307.09 282.99 308.38 284.15 C 308.21 281.41 307.82 278.69 307.34 275.99 C 306.55 276.01 304.97 276.06 304.17 276.08 M 328.96 276.03 C 327.77 279.15 325.2 281.97 324.91 285.36 C 326.4 291.93 330.51 297.54 333.19 303.65 C 337.39 303.41 341.59 303.51 345.79 303.63 C 348.96 297.18 352.48 290.89 355.22 284.24 C 356.3 281.36 354.32 278.56 353.44 275.91 C 345.28 276.04 337.11 276 328.96 276.03 M 370.98 276.18 C 370.39 278.07 374.38 278.91 374.54 276.87 C 374.23 275.37 371.87 275.04 370.98 276.18 M 390.38 276.68 C 392.3 277.61 394.25 278.47 396.23 279.28 C 396.34 278.48 396.55 276.89 396.66 276.09 C 394.56 276.27 392.47 276.47 390.38 276.68 M 243.66 293.83 C 243.51 295.03 243.21 297.43 243.05 298.63 C 254.08 303.94 266.24 306.58 277.83 310.42 C 282.67 300.77 287.4 291.07 291.86 281.24 C 290.82 280.21 289.79 279.18 288.76 278.15 C 273.75 283.45 258.46 287.96 243.66 293.83 M 367.14 279.92 C 362.67 282.32 357.04 283.83 354.95 288.94 C 351.84 294.58 348.84 300.45 347.71 306.85 C 358.7 299.87 366.55 289.21 375.24 279.73 C 372.57 279.51 369.64 278.47 367.14 279.92 M 387.29 279.28 C 388.31 280.85 389.4 282.37 390.52 283.88 C 390.98 282.9 391.9 280.95 392.37 279.97 C 390.67 279.73 388.98 279.5 387.29 279.28 M 754.91 283.12 C 756.75 281.84 758.53 280.47 760.22 278.98 C 758.36 280.25 756.59 281.64 754.91 283.12 M 154.64 286.63 C 158.49 292.12 162.17 297.72 165.96 303.26 C 165.89 295.12 165.7 286.99 165.12 278.88 C 160.9 280.41 157.67 283.49 154.64 286.63 M 598.14 283.72 C 600.44 287 603.06 290.07 605.68 293.13 C 609.3 291.77 612.95 290.47 616.6 289.18 C 612.84 285.99 608.84 283.09 604.93 280.1 C 602.68 281.34 600.4 282.52 598.14 283.72 M 296.83 283.03 C 297.18 286.43 297.53 289.8 297.95 293.21 C 300.27 291.1 302.52 288.92 304.62 286.59 C 304.36 284.52 303.37 282.66 302.55 280.78 C 300.65 281.54 298.74 282.28 296.83 283.03 M 377.15 281.25 C 368.64 290.18 359.15 298.27 351.78 308.23 C 364.18 301.17 375.84 292.85 387.31 284.38 C 383.9 283.33 380.53 282.31 377.15 281.25 M 401.58 283.17 C 406.71 285.99 412.02 288.54 417.63 290.26 C 415.72 287.34 413.45 284.64 410.73 282.44 C 407.68 281.66 404.59 282.77 401.58 283.17 M 594.26 280.28 C 592.92 281.64 591.6 283.01 590.29 284.39 C 592.27 286.14 594.27 287.92 596.64 289.13 C 595.96 286.12 595.32 283.16 594.26 280.28 M 622.55 289.66 C 632.69 297.29 643.61 303.82 653.97 311.14 C 656.55 309.36 659.45 307.97 661.68 305.73 C 661.97 300.74 662.1 295.75 662.07 290.76 C 656.21 289.19 651.47 285.39 647.63 280.79 C 639.13 283.32 630.87 286.59 622.55 289.66 M 168.07 281.64 C 168.03 290.24 168 298.86 167.97 307.47 C 170.64 307.6 173.89 309.31 176.18 307.23 C 182.86 301.24 188.88 294.56 195.14 288.14 C 186.17 285.78 177.15 283.56 168.07 281.64 M 392.68 282.62 C 397.17 286.17 402.86 287.63 408.31 289.08 C 403.4 286.24 398.24 283.8 392.68 282.62 M 745.83 282.23 C 745.08 283.61 747.47 284.82 748.32 283.62 C 749.1 282.2 746.67 280.98 745.83 282.23 M 758.24 283.05 C 761.73 284.99 765.52 286.32 769.45 287.05 C 766.2 284.64 762.53 281.96 758.24 283.05 M 105.71 284.59 C 109.68 305.43 113.54 326.3 118.05 347.03 C 130.87 338.92 144.22 331.68 156.76 323.15 C 156.42 320.79 156.1 318.43 155.79 316.08 C 142.39 306.22 129.25 296.02 115.97 286 C 113.33 282.32 109.19 283.69 105.71 284.59 M 293.24 283.13 C 288.83 292.51 283.94 301.65 279.86 311.18 C 285.11 306.38 290.71 301.76 294.73 295.82 C 296.37 291.81 295.56 287.31 295.83 283.08 C 295.18 283.09 293.89 283.12 293.24 283.13 M 738.34 285.37 C 733.54 289.55 727.23 289.89 721.2 289.44 C 717.84 296.28 714.13 303.02 711.91 310.34 C 718.45 308.51 723.36 303.61 728.64 299.64 C 734.82 294.8 741.42 290.4 747.02 284.86 C 744.14 284.11 740.77 282.76 738.34 285.37 M 199.85 285.69 C 200.16 286.27 200.78 287.43 201.09 288.01 C 202.41 287.99 203.74 287.96 205.07 287.94 C 205.22 286.62 205.37 285.29 205.51 283.98 C 203.61 284.5 201.72 285.08 199.85 285.69 M 205.78 287.24 C 210.3 290.4 215.87 291.28 221.01 293.03 C 221.87 291.15 222.73 289.27 223.6 287.4 C 218.13 283.18 211.6 284.94 205.78 287.24 M 310.24 284.06 C 308.47 284.44 309.16 287.33 310.92 286.78 C 312.68 286.39 312.03 283.44 310.24 284.06 M 690.54 300.77 C 693.2 303.7 695.86 306.59 698.52 309.53 C 708.72 305.97 712.12 294.72 718.18 286.83 C 717.17 285.8 716.16 284.79 715.15 283.78 C 707.04 289.57 698.74 295.1 690.54 300.77 M 770.57 287.3 C 774.22 289.03 777.98 290.6 781.72 292.21 C 782.29 290.6 782.87 288.99 783.46 287.39 C 781 286.32 778.7 284.78 776.08 284.21 C 774 284.72 772.21 285.98 770.57 287.3 M 315.32 286.23 C 314.86 287.55 314.4 288.86 313.94 290.18 C 319.35 296.13 323.96 303.62 332.01 306.2 C 329.08 298.94 325.52 291.96 322.01 284.97 C 319.77 285.39 317.55 285.81 315.32 286.23 M 93.67 299.68 C 85.58 321.2 76.62 342.38 68.59 363.92 C 71.59 366.5 74.51 369.17 77.4 371.9 C 90.34 363.96 103.28 356.03 116.24 348.13 C 111.72 327.07 107.9 305.88 103.3 284.84 C 97.16 287.39 95.99 294.25 93.67 299.68 M 381.83 290.75 C 372.43 297.31 362.96 303.74 353.38 310.02 C 355.1 316.33 354.78 323.23 351.43 328.95 C 359.31 336.81 367.17 344.69 375.09 352.51 C 379.36 351.68 383.71 351.6 388.06 351.55 C 398 336.72 408.45 322.12 417.34 306.64 C 417 302.16 414.83 298 414.15 293.58 C 407.05 291.1 399.99 288.47 392.66 286.75 C 388.35 285.4 385.07 288.74 381.83 290.75 M 585.65 289.07 C 587.91 289.82 590.17 290.52 592.46 291.17 C 591.49 289.2 590.47 287.26 589.39 285.35 C 588.13 286.58 586.89 287.82 585.65 289.07 M 754.2 286.37 C 759.13 289.97 764.78 292.46 770.56 294.37 C 768.18 287.64 760.33 286.65 754.2 286.37 M 298.48 296.34 C 297.3 300.58 297.56 305.06 297.43 309.42 C 297.99 309.56 299.11 309.83 299.67 309.96 C 302.97 302.27 308.75 295.11 308.69 286.43 C 305.04 289.46 301.47 292.64 298.48 296.34 M 668.72 289.18 C 670.56 295.65 672.86 301.96 675.17 308.28 C 679.01 305.97 682.78 303.6 686.64 301.29 C 682.81 295.74 677.73 291.22 672.98 286.5 C 671.54 287.38 670.13 288.28 668.72 289.18 M 195.26 291.2 C 188.1 297.79 181.35 304.86 175.28 312.48 C 183.51 312.84 191.48 309.58 198.47 305.56 C 201.41 300.68 202.39 294.89 204.34 289.59 C 201.29 289.6 197.64 288.73 195.26 291.2 M 749.89 289.99 C 737.79 297.01 726.37 305.25 715.39 313.91 C 733.57 311.19 751.12 305.28 769.02 301.2 C 769.01 299.77 769.01 298.33 769.02 296.91 C 762.97 294.05 756.99 288.91 749.89 289.99 M 619.3 290.27 C 614.88 291.85 610.45 293.42 606.06 295.02 C 606.04 295.79 606 297.32 605.98 298.09 C 621.51 303.33 637 308.67 652.64 313.57 C 642.19 304.91 630.61 297.74 619.3 290.27 M 664 289.97 C 664 295.63 664.01 301.28 664.03 306.94 C 667.08 308.37 670.11 309.85 673.19 311.25 C 671.54 304.07 669.16 297.09 666.88 290.1 C 666.16 290.07 664.72 290.01 664 289.97 M 205.87 290.94 C 204.38 295.7 202.83 300.45 201.58 305.29 C 208.19 303.68 214.56 301.3 220.96 299.05 C 220.98 297.64 221.01 296.23 221.04 294.82 C 216 293.47 210.93 292.21 205.87 290.94 M 567.41 308.4 C 575.64 308.37 582.55 302.8 589.93 299.82 C 589.91 298.17 589.87 294.88 589.86 293.23 C 587.87 292.37 585.89 291.51 583.92 290.65 C 578.1 296.26 572.1 301.79 567.41 308.4 M 770.08 291.2 C 771.46 295.94 775.8 298.36 780.3 299.44 C 780.61 297.56 780.92 295.67 781.22 293.79 C 777.5 292.9 773.77 292.03 770.08 291.2 M 302.13 309.1 C 301.37 311.02 302.47 313.01 302.83 314.9 C 306.71 307.98 308.65 300.22 310.78 292.64 C 307.34 297.81 304.4 303.33 302.13 309.1 M 313.24 292.93 C 310.52 300.96 307.9 309.02 305.02 317 C 311.23 316.97 317.43 316.92 323.65 316.86 C 324.99 313.63 326.44 310.45 327.97 307.31 C 323.04 302.53 318.17 297.7 313.24 292.93 M 707.84 308.61 C 711.89 304.49 714.14 299.05 716.23 293.76 C 712.7 298.23 709.53 303.13 707.84 308.61 M 156.99 294.71 C 158.95 299.46 161.72 303.83 164.68 308.02 C 163.6 302.87 160.18 298.73 156.99 294.71 M 437.67 296.95 C 437 298.81 436.36 300.67 435.76 302.56 C 451.2 311.8 465.57 322.66 480.66 332.44 C 483.19 334.24 486.34 333.02 489.11 332.6 C 488.99 325.98 488.85 319.36 488.68 312.75 C 485.62 311.03 482.29 309.68 479.62 307.38 C 477.06 304.34 475.58 300.57 473.73 297.1 C 461.71 297.02 449.69 296.96 437.67 296.95 M 282.47 312.65 C 284.97 313.18 287.47 313.71 289.98 314.22 C 294.28 310.58 296.85 305.31 295.29 299.49 C 290.79 303.65 286.57 308.09 282.47 312.65 M 599.63 304.4 C 595.53 304.97 591.79 300.66 587.74 302.63 C 582.13 305.09 576.87 308.25 571.53 311.23 C 571.9 317.94 570.97 324.68 568.37 330.91 C 590.15 352.87 612.42 374.36 633.75 396.76 C 636.77 395.91 639.74 395.13 642.84 394.49 C 648.38 372.94 653.35 351.26 658.73 329.67 C 654.11 326.4 651.18 321.38 650.78 315.65 C 636.17 310.02 621.26 305.23 606.39 300.34 C 604.27 301.88 602.17 303.61 599.63 304.4 M 200.16 308.19 C 197.82 315.93 195.37 323.64 193.36 331.48 C 195.84 330.43 198.3 329.2 200.26 327.31 C 208.17 319.87 215.32 311.68 222.92 303.94 C 222.53 302.94 222.13 301.94 221.74 300.95 C 214.51 303.26 207.34 305.72 200.16 308.19 M 770.96 302.27 C 771 318.76 770.64 335.27 771.81 351.73 C 778.51 337.26 782.17 321.57 787.58 306.6 C 782.52 303.72 776.93 300.78 770.96 302.27 M 801.85 300.83 C 803.87 302.7 806.1 304.35 808.46 305.81 C 806.46 303.88 804.23 302.23 801.85 300.83 M 688.44 302.06 C 684.29 304.84 680.07 307.51 675.89 310.2 C 676.26 312.47 676.66 314.73 677.07 316.99 C 682.9 316.96 688.72 316.9 694.58 316.85 C 695.37 314.81 696.19 312.78 697.04 310.76 C 694.19 307.83 691.32 304.94 688.44 302.06 M 234.83 306.7 C 231.23 308.27 227.47 306.61 224 305.54 C 215.32 314.24 206.11 322.54 198.74 332.44 C 198.49 336.28 199.89 340.02 200.18 343.83 C 227.43 354.63 254.47 365.95 281.73 376.73 C 285.7 372.57 290.84 369.87 295.98 367.41 C 295.53 362.24 295.01 357.08 294.5 351.92 C 291.13 349.99 287.24 347.91 286.03 343.92 C 284.6 340.18 286.72 336.41 286.77 332.65 C 285.86 329.62 283.07 327.57 281.3 325.06 C 277.83 325.63 274.31 326.03 270.82 326.44 C 268.7 322.71 267.42 318.42 264.97 314.92 C 258.85 310.89 252.29 307.4 245.54 304.53 C 241.88 302.85 238.34 306.1 234.83 306.7 M 496.11 311.22 C 498.77 318.9 501.39 326.6 504.13 334.25 C 514.52 331.21 524.84 327.84 534.96 323.96 C 537.16 322.91 540.32 321.95 537.85 318.05 C 540.26 313.31 535.7 313.02 533.15 311.79 C 524.15 308.85 515.26 305.4 506.06 303.18 C 502.23 305.13 499.43 308.57 496.11 311.22 M 717.16 316.27 C 716.62 318.75 716.37 321.37 715.91 323.89 C 731.17 334.12 746.21 344.67 761.61 354.7 C 764.02 353.35 766.46 352.03 768.91 350.73 C 769.03 334.89 769 319.05 769.01 303.21 C 751.72 307.54 734.48 312.07 717.16 316.27 M 143.58 304.16 C 147.62 308.16 152.53 311.12 157.39 314.03 C 153.52 309.81 148.43 307.05 143.58 304.16 M 249.74 303.97 C 255.85 307.57 262.25 310.67 268.76 313.5 C 269.2 312.43 269.65 311.37 270.09 310.32 C 263.36 308.04 256.62 305.74 249.74 303.97 M 430.1 307.18 C 435.45 322.56 440.52 338.03 445.6 353.5 C 448.91 354.22 452.11 356.43 455.61 356.3 C 464.68 352.9 473 347.78 481.8 343.74 C 482.12 341.19 482.53 338.71 482.9 336.19 C 466.55 325.45 450.68 314 434.08 303.65 C 432.75 304.82 431.42 306 430.1 307.18 M 794.57 307.92 C 798.05 309.43 801.55 311 805.14 312.3 C 803.14 310 801.08 307.74 799.06 305.5 C 797.55 306.29 796.05 307.1 794.57 307.92 M 803.69 306.38 C 802.7 307.86 805.22 309.74 806.45 308.49 C 807.5 306.98 804.89 305.15 803.69 306.38 M 420.01 306.98 C 410.37 322.18 399.65 336.74 390.64 352.31 C 391.15 355.39 392.73 358.15 393.88 361.02 C 408.87 361.01 423.86 361 438.85 360.92 C 440.47 357.48 443.59 353.98 442.14 349.93 C 437.82 335.77 433.15 321.71 428.32 307.72 C 425.54 307.52 422.77 307.25 420.01 306.98 M 789.39 307.49 C 784.69 322.77 777.94 337.57 775.35 353.41 C 786.3 345.65 794.89 335.19 804.53 325.96 C 803.77 323.29 803.1 320.59 802.58 317.86 C 802.19 311.27 793.99 310.3 789.39 307.49 M 177.4 316.1 C 179 320.77 180.8 325.39 182.71 329.95 C 185.53 329.58 188.27 329.12 191.12 328.85 C 193.4 322.29 195.83 315.77 197.49 309.03 C 190.72 311.16 184.04 313.58 177.4 316.1 M 490.94 312.03 C 490.98 318.64 491.04 325.26 491.09 331.88 C 494.53 333.63 498.01 335.34 501.77 336.32 C 499.88 327.99 497.36 319.84 494.32 311.87 C 493.48 311.91 491.79 311.99 490.94 312.03 M 673.23 312.92 C 672.09 313.84 672.61 316.12 674.1 316.36 C 676.17 316.12 675.13 312.14 673.23 312.92 M 283.6 315.56 C 282.77 317.58 286.98 318.33 287.12 316.28 C 286.67 314.95 284.51 314.43 283.6 315.56 M 282.59 318 C 281.36 323.32 284.26 327.79 287.82 331.49 C 290.65 330.49 293.47 329.45 296.29 328.43 C 292.12 324.48 287.61 320.83 282.59 318 M 304.79 318.96 C 303.48 322.47 302.22 325.99 300.96 329.51 C 302.75 331 304.52 332.52 306.24 334.1 C 312.41 330.73 318.73 327.66 325.09 324.67 C 324.76 322.78 324.42 320.9 324.05 319.03 C 317.63 318.99 311.2 318.97 304.79 318.96 M 674.41 318.4 C 671.83 322.72 672.57 327.53 675.36 331.59 C 677.05 331.02 678.75 330.46 680.45 329.88 C 678.53 326 676.77 322.03 674.41 318.4 M 678.43 318.99 C 679.45 322.35 680.56 325.67 681.76 328.97 C 684.47 329.27 687.28 329.61 690.04 329.95 C 692.01 326.61 693.93 323.24 695.36 319.63 C 689.71 319.36 684.06 319.15 678.43 318.99 M 825.06 319.86 C 824.69 320.78 824.33 321.71 823.97 322.64 C 828.38 324.71 832.7 326.93 837.11 329.02 C 833.13 325.9 829.1 322.87 825.06 319.86 M 118.28 349.15 C 119.48 354.91 120.64 360.68 121.63 366.49 C 125.42 367.18 129.23 367.83 133.01 368.66 C 142.18 354.6 151.49 340.62 160.34 326.35 C 159.76 325.99 158.58 325.27 157.99 324.91 C 144.89 333.21 131.56 341.13 118.28 349.15 M 176.8 325.45 C 175.95 326.77 177.81 329.19 179.3 328.45 C 180.23 327.09 178.34 324.62 176.8 325.45 M 504.74 336.33 C 506.02 340.29 507.35 344.23 508.69 348.18 C 519.56 340.73 531.29 334.3 540.95 325.23 C 528.38 327 516.83 332.76 504.74 336.33 M 695.18 325.31 C 694.03 325.72 692.92 327.3 693.7 328.45 C 695.5 329.62 697.91 324.98 695.18 325.31 M 810.8 330.1 C 808.13 337.37 805.88 344.77 803.7 352.19 C 815.65 349.59 827.49 346.48 839.34 343.44 C 839.65 340 840.08 336.56 840.59 333.15 C 835.12 330.5 829.78 327.47 823.95 325.72 C 819.47 326.85 815.36 329.2 810.8 330.1 M 298.16 326.04 C 296.26 326.44 296.88 329.63 298.84 328.96 C 300.73 328.55 300.11 325.36 298.16 326.04 M 706.01 329.35 C 703.29 329.19 700.72 328.18 698.15 327.38 C 696.49 328.97 694.84 330.57 693.19 332.17 C 694.04 335.36 694.75 338.54 695.44 341.79 C 717.17 347.07 738.55 354.07 760.62 357.81 C 746.35 345.97 730.57 336.14 715.12 325.95 C 712.18 327.28 709.29 329.06 706.01 329.35 M 307 335.98 C 307.77 340.41 305.75 346.59 311.06 348.88 C 326.14 358.97 340.82 369.84 356.59 378.81 C 356.71 374.67 356.02 370.54 354.49 366.68 C 350.81 355.73 347.06 344.81 343.42 333.85 C 336.69 334.06 330.57 331.3 325.51 327.03 C 319.29 329.91 313.14 332.93 307 335.98 M 664.01 328.89 C 660.04 329.16 659.65 334.07 658.91 336.95 C 654.58 356.9 648.3 376.47 645.12 396.65 C 654.88 383.99 663.15 370.27 672.06 357.02 C 673.29 353.98 677.51 350.98 675.5 347.41 C 673.03 342.43 673.92 336.8 674.9 331.56 C 671.67 329.22 668 327 664.01 328.89 M 806.15 327.18 C 797.11 336.52 787.8 345.59 778.72 354.9 C 779.55 355.97 780.38 357.04 781.22 358.13 C 787.54 356.06 794.93 356.19 800.71 352.72 C 804.36 344.95 806.29 336.39 809.17 328.27 C 808.15 327.9 807.15 327.54 806.15 327.18 M 162.11 329.08 C 153.47 343.77 143.88 357.97 136.57 373.4 C 149.68 366.46 161.21 356.88 173.78 349.06 C 172.06 342.41 170.47 335.72 168.87 329.04 C 167.18 329.05 163.8 329.07 162.11 329.08 M 171.22 328.49 C 172.43 334.7 173.74 340.9 175.07 347.1 C 176.19 346.89 177.32 346.69 178.45 346.49 C 178.31 342.45 178.78 338.37 178.31 334.37 C 176.26 332.07 173.53 330.47 171.22 328.49 M 509.01 350.38 C 510.06 353.64 511.15 356.88 512.25 360.13 C 522.42 349.91 533.25 340.27 542.24 328.95 C 530.8 335.53 520.2 343.41 509.01 350.38 M 349.43 330.09 C 348.17 330.81 346.91 331.53 345.65 332.26 C 349.98 347.46 354.97 362.48 360.07 377.44 C 365.78 377.65 370.05 373.98 373.88 370.32 C 371.35 365.15 371.18 359.35 373.62 354.12 C 365.57 346.09 357.6 337.99 349.43 330.09 M 540.81 333.78 C 531.4 343.15 522.85 353.39 512.99 362.34 C 518.84 380.04 524.62 397.78 530.63 415.44 C 533.81 417.54 538 417.65 541.1 419.93 C 543.09 421.86 544.11 424.51 545.42 426.9 C 566.13 427.06 586.85 427.09 607.57 426.85 C 609.55 423.11 611.44 418.27 616.17 417.46 C 621.25 416.49 626.16 414.97 630.64 412.27 C 630.51 407.22 630.94 402.17 631.71 397.18 C 610.2 375.81 588.74 354.33 567.64 332.59 C 561.68 333.01 555.8 335.37 549.77 333.81 C 546.84 333.79 543.25 331.35 540.81 333.78 M 496.78 345.48 C 498.95 347.61 501.1 349.75 503.25 351.91 C 504.54 351.22 505.83 350.53 507.12 349.85 C 505.26 345.3 503.46 340.75 501.47 336.28 C 499.72 339.25 498.25 342.37 496.78 345.48 M 695.04 344.04 C 693.91 345.72 692.79 347.4 691.67 349.09 C 701.64 365.78 713.16 381.49 723.16 398.17 C 727 397.97 731.67 399.84 734.72 396.78 C 743.93 388.06 752.52 378.7 761.65 369.9 C 760.49 366.66 759.44 363.38 758.52 360.06 C 737.38 354.63 716.23 349.26 695.04 344.04 M 454.28 360.52 C 459.11 360.82 463.94 360.87 468.8 361.01 C 473.77 355.81 478.79 350.65 483.43 345.14 C 473.36 349.55 463.37 354.3 454.28 360.52 M 192.72 351.01 C 199.02 365.98 202.33 382.05 209.15 396.79 C 212.29 398.81 215.55 400.91 219.05 402.28 C 225.2 401.92 230.99 399.31 236.8 397.47 C 243.57 395.29 249.39 389.59 256.98 390.72 C 265.16 390.92 273.11 388.86 281 386.96 C 280.97 384.12 280.85 381.19 280.83 378.39 C 254.45 368.34 228.62 356.84 202.25 346.76 C 198.36 344.96 195.58 349.13 192.72 351.01 M 802.3 355.08 C 800.64 360.74 798.3 366.22 797.15 372.01 C 796.6 375.34 800.65 377.09 803.13 375.1 C 816.16 366.54 828.88 357.5 841.97 349.03 C 841.54 347.94 841.12 346.86 840.71 345.79 C 827.72 348.07 815.06 351.84 802.3 355.08 M 471.58 361.43 C 480.69 362.94 488.98 355.83 489.61 346.9 C 481.62 348.46 476.92 356.01 471.58 361.43 M 490.14 354.24 C 493.99 355.19 498.01 355.46 501.86 354.35 C 499.52 351.45 496.96 348.71 494.44 345.99 C 492.83 348.64 491.36 351.37 490.14 354.24 M 297.01 352.11 C 297.07 357.24 297.12 362.37 297.18 367.5 C 304.61 369.65 310.8 375.18 312.65 382.84 C 326.49 383.09 340.35 383.15 354.19 382.39 C 350.65 377.31 345.1 374.26 340.17 370.76 C 328.72 363.05 317.18 355.5 305.75 347.77 C 302.84 349.22 299.94 350.7 297.01 352.11 M 181.16 348.94 C 180.08 350.2 177.91 352.71 176.83 353.96 C 178.37 359.44 179.94 364.92 181.54 370.39 C 183.14 363.73 184.61 357.03 185.41 350.23 C 183.99 349.8 182.58 349.37 181.16 348.94 M 678.85 350.41 C 668.97 365.56 658.46 380.35 649.08 395.8 C 649.05 398.93 651.19 401.92 652.03 404.97 C 674.44 405.03 696.86 404.97 719.27 405.03 C 719.91 402.4 721.92 399.49 720.18 396.87 C 710.56 381.08 699.72 366.06 689.77 350.48 C 686.13 350.6 682.47 350.49 678.85 350.41 M 79 373.15 C 79.68 376.43 80.37 379.71 81.06 383.01 C 89.41 382.95 97.77 382.9 106.12 382.77 C 108.35 375.75 113.13 370.15 119.61 366.63 C 118.63 361.33 117.63 356.05 116.69 350.75 C 103.72 357.51 91.63 365.79 79 373.15 M 190.34 350.64 C 189.82 366.36 189.98 382.1 190.08 397.83 C 194.17 399.78 198.31 401.61 202.58 403.14 C 203.95 401.13 205.33 399.13 206.72 397.14 C 201.02 381.72 196.79 365.78 190.34 350.64 M 803.3 378.01 C 801.89 383.56 802.52 389.84 798.21 394.28 C 800.91 399.73 803.58 405.19 806.21 410.68 C 811.05 410.61 815.91 410.6 820.77 410.67 C 829.98 392.22 838.98 373.67 847.89 355.08 C 846.66 354.02 844.21 351.89 842.98 350.83 C 829.73 359.82 815.7 367.94 803.3 378.01 M 139.34 374.94 C 140.32 378.75 141.13 382.57 141.86 386.45 C 152.94 374.85 164.36 363.53 175.03 351.55 C 162.31 357.98 151.28 367.24 139.34 374.94 M 505.03 352.99 C 506.26 354.42 507.52 355.84 508.8 357.24 C 508.49 355.44 508.18 353.64 507.88 351.84 C 507.16 352.13 505.74 352.7 505.03 352.99 M 183.26 373.15 C 182.96 380.49 185.06 387.66 187.57 394.48 C 188.31 381.19 188.07 367.87 187.45 354.6 C 185.78 360.71 184.14 366.86 183.26 373.15 M 497.25 360.53 C 500.26 360.61 506.28 360.78 509.29 360.86 C 507.07 358.67 504.84 356.49 502.62 354.32 C 500.72 356.3 498.91 358.35 497.25 360.53 M 143.48 387.69 C 154.49 390.8 165.64 393.37 176.74 396.13 C 177.98 388.85 180.72 381.64 179.5 374.17 C 178.61 367.85 177.04 361.66 175.61 355.46 C 164.32 365.59 153.73 376.51 143.48 387.69 M 782.39 360 C 781.4 363.28 780.33 366.54 779.17 369.75 C 780.83 371.42 782.5 373.09 784.17 374.76 C 787.67 373.85 791.14 373.05 794.71 372.42 C 796.46 366.85 798.37 361.34 800.22 355.81 C 794.25 357.13 788.3 358.54 782.39 360 M 393.32 363.79 C 408.01 369.9 423.11 375.02 438.34 379.61 C 439.36 376.68 440.88 373.89 441.48 370.83 C 441.52 368.04 440 365.55 439.11 362.99 C 423.84 362.96 408.56 362.72 393.32 363.79 M 455.59 363.3 C 454.46 365.25 453.27 367.17 452.06 369.06 C 452.92 370.84 453.78 372.63 454.63 374.43 C 458.59 370.76 462.4 366.95 466.25 363.18 C 463.59 363.21 458.26 363.27 455.59 363.3 M 469.53 363.72 C 463.71 367.14 459.9 373.1 455.57 378.13 C 465.21 374.35 474.31 369.24 482.76 363.26 C 478.35 363.22 473.91 363.26 469.53 363.72 M 498.4 363.18 C 497.56 365.12 496.68 367.04 495.82 368.97 C 496.89 370.43 497.97 371.89 499.05 373.35 C 502.45 369.97 505.83 366.57 509.19 363.14 C 506.5 363.15 501.1 363.17 498.4 363.18 M 500.42 375.12 C 503.73 380.29 507.18 385.36 510.67 390.42 C 510.87 381.86 510.93 373.3 510.9 364.75 C 507.38 368.18 503.89 371.63 500.42 375.12 M 391.12 366.69 C 392.29 369.4 393.59 372.14 395.69 374.26 C 403.05 381.92 410.83 389.16 418.23 396.78 C 422.29 395.49 426.57 394.93 430.55 393.41 C 433.18 389.78 434.67 385.45 436.47 381.36 C 421.32 376.57 406.68 370.14 391.12 366.69 M 457.38 379.54 C 458.57 382.21 459.37 385.29 461.56 387.36 C 465.67 389.47 470.23 390.58 474.56 392.22 C 478.21 384.51 482.04 376.88 485.85 369.25 C 485.12 368.46 484.4 367.68 483.68 366.9 C 474.88 371.04 466.19 375.42 457.38 379.54 M 440.7 378.49 C 443.98 376.5 447.41 374.03 445.71 369.16 C 443.66 372.05 442.02 375.2 440.7 378.49 M 448.21 369.48 C 447.85 373.39 449.72 376.19 453.09 377.66 C 451.55 374.87 449.95 372.13 448.21 369.48 M 487.55 370.22 C 483.18 377.67 479.27 385.49 476.71 393.76 C 484.86 389.49 490.34 381.71 496.92 375.52 C 494.24 372.97 492.26 368.48 487.55 370.22 M 367.96 378.06 C 368.53 380.49 369.1 382.93 369.69 385.37 C 372.18 380.66 374.49 375.84 376.38 370.85 C 373.49 373.16 370.74 375.63 367.96 378.06 M 378.19 373.59 C 376.09 377.8 373.98 382.02 371.88 386.24 C 386.43 391.44 401 396.58 415.73 401.24 C 416.07 400.22 416.43 399.2 416.79 398.18 C 407.86 389.48 398.93 380.76 390.78 371.32 C 386.65 372.4 382.43 373.1 378.19 373.59 M 513.21 370.65 C 513.04 378.42 513.19 386.19 513.37 393.96 C 517.27 396.42 521.78 399.16 522.7 404.05 C 523.53 408.25 524.52 412.59 527.7 415.68 C 524.04 400.35 518.82 385.37 513.21 370.65 M 733.48 402.04 C 739.85 400.76 746.28 398.99 752.04 396 C 757.42 388.31 761.01 379.36 764.24 370.56 C 753.4 380.43 743.13 391.01 733.48 402.04 M 765.9 373.29 C 762.27 380.47 758.49 387.6 755.54 395.1 C 764.34 392.23 773.06 389.13 781.76 385.95 C 780.05 381.28 778.24 376.69 776.29 372.14 C 772.85 372.62 769.32 372.94 765.9 373.29 M 778.84 372.98 C 780.19 374.73 781.63 376.41 783.16 378.02 C 781.8 376.26 780.36 374.58 778.84 372.98 M 481.62 394.36 C 487.79 396.32 493.64 399.46 500.06 400.51 C 502.55 400.13 504.23 397.72 506.25 396.33 C 503.17 390.48 500.28 384.54 497.39 378.6 C 491.85 383.56 486.61 388.85 481.62 394.36 M 501.18 380.74 C 503.05 385.51 505.06 390.23 507.04 394.97 C 507.9 394.91 509.61 394.78 510.47 394.72 C 507.63 389.9 504.43 385.29 501.18 380.74 M 181.57 382.65 C 180.55 387.36 179.65 392.1 178.81 396.85 C 181.2 397.3 183.59 397.76 185.98 398.19 C 184.66 392.97 183.22 387.77 181.57 382.65 M 431.61 397.14 C 434.55 394.8 437.34 392.3 440.18 389.86 C 439.58 387.45 438.98 385.04 438.39 382.64 C 435.82 387.31 433.51 392.15 431.61 397.14 M 456.18 383.37 C 454.52 383.7 455.28 386.31 456.83 385.95 C 458.47 385.66 457.68 383.01 456.18 383.37 M 80.44 385.9 C 89.5 388.18 98.69 389.83 107.93 391.14 C 107.54 389.07 107.16 386.99 106.8 384.91 C 98.01 385.01 89.21 385.26 80.44 385.9 M 311.99 384.99 C 311.99 385.77 312 387.32 312 388.1 C 325.74 392.83 339.62 397.13 353.23 402.24 C 355.48 400.37 357.91 398.7 359.99 396.64 C 359.08 391.7 354.69 388.86 351.97 384.99 C 338.64 384.99 325.31 385.01 311.99 384.99 M 453.3 388.24 C 456.07 391.39 459.15 394.23 462.26 397.04 C 461.52 394.29 460.76 391.55 460.01 388.81 C 457.78 388.58 455.54 388.39 453.3 388.24 M 80 388.71 C 79.62 390.7 79.25 392.7 78.92 394.71 C 89.06 400.38 98.5 407.35 109.31 411.76 C 111.34 407.42 113.43 403.1 115.48 398.77 C 112.19 396.07 109.08 392.66 104.44 392.51 C 96.41 390.62 88.2 389.59 80 388.71 M 263.03 393.31 C 264.36 394.93 265.67 396.54 266.98 398.18 C 272.1 395.16 277.24 392.17 282.29 389.05 C 275.76 389.92 269.44 391.83 263.03 393.31 M 369.96 388.55 C 368.9 391.72 367.2 394.75 366.67 398.08 C 366.99 400.51 368.21 402.69 369.04 404.98 C 384.6 405.02 400.19 405.31 415.73 404.2 C 401.06 397.49 385.31 393.39 369.96 388.55 M 297.1 400.45 C 297.18 411.63 297.69 422.82 297.04 433.99 C 300.9 436.6 304.8 439.13 308.69 441.72 C 313.82 438.29 320.01 437.84 325.78 439.78 C 334.39 430.74 343.83 422.5 352.04 413.09 C 354.62 410.93 353 407.03 353.78 404.35 C 339.8 400.25 326.48 394.1 312.31 390.66 C 307.39 394.15 302.49 397.71 297.1 400.45 M 362.4 398.96 C 364.54 396.08 366.2 392.88 367.46 389.53 C 364.05 391.47 360.34 393.83 362.4 398.96 M 462.92 389.87 C 463.27 391.6 463.63 393.33 464 395.06 C 467.17 394.91 470.18 394.62 473.4 394.5 C 469.91 392.93 466.41 391.4 462.92 389.87 M 757.32 402.47 C 757.31 403.69 757.28 406.15 757.26 407.38 C 762.03 409.49 767.08 410.9 772.04 412.54 C 776.45 405.86 780.72 399.09 784.93 392.3 C 784.17 391.5 783.42 390.71 782.68 389.92 C 774.16 393.97 765.46 397.7 757.32 402.47 M 140.21 390.63 C 139.11 392.36 138.02 394.1 136.93 395.84 C 148.97 398.28 161.06 400.59 173.28 401.92 C 162.42 397.7 151.36 394.01 140.21 390.63 M 434.8 397.27 C 435.53 399.84 436.3 402.39 437.07 404.95 C 440.08 405.01 442.96 404.93 446.02 405.02 C 445.98 400.73 445.92 396.43 445.91 392.15 C 444.58 391.69 443.26 391.22 441.95 390.76 C 439.58 392.95 437.18 395.11 434.8 397.27 M 448 392.14 C 448.11 396.33 448.22 400.51 448.38 404.72 C 451.26 404.89 453.97 404.86 456.91 405.04 C 458 402.95 459.11 400.87 460.24 398.8 C 457.54 396.09 454.8 393.41 452.08 390.74 C 450.71 391.2 449.35 391.67 448 392.14 M 753.88 398.01 C 754.12 398.79 754.58 400.33 754.82 401.1 C 761.52 398.26 768.05 394.99 774.28 391.18 C 767.38 393.14 760.64 395.66 753.88 398.01 M 268.3 399.18 C 268.23 404.09 268.08 409.02 267.37 413.89 C 276.46 420.26 285.5 426.8 295.21 432.22 C 295.77 421.62 295.85 410.99 295.96 400.38 C 291.26 398.13 286.57 395.74 282.62 392.3 C 277.86 394.62 273.09 396.93 268.3 399.18 M 158.84 393.98 C 164.55 396.3 170.27 399.01 176.48 399.68 C 170.74 397.36 164.82 395.54 158.84 393.98 M 785.49 395.41 C 781.29 400.99 777.92 407.16 774.05 412.96 C 781.69 415.7 789.37 418.32 797.02 421.08 C 798.92 418.34 800.91 415.66 802.97 413.04 C 798.91 407.38 795.49 401.27 791.08 395.87 C 789.73 394.3 786.78 393.13 785.49 395.41 M 475.17 395.17 C 474.64 396.79 475.2 397.35 476.83 396.83 C 477.35 395.2 476.79 394.64 475.17 395.17 M 793.63 395.24 C 796.35 399.63 799.18 403.95 802.19 408.17 C 800.79 403.66 798.79 399.37 796.98 395.03 C 796.14 395.08 794.47 395.19 793.63 395.24 M 75.89 395.8 C 77.78 403.66 84.95 408.91 90.99 413.64 C 94.29 412.99 97.33 411.49 100.47 410.34 C 92.56 405.05 84.43 400.01 75.89 395.8 M 478.32 395.77 C 478.65 398.91 479.21 402.03 479.78 405.14 C 487.09 404.91 494.41 404.62 501.72 404.16 C 494.3 400.4 486.21 398.27 478.32 395.77 M 134.79 397.93 C 138.25 403.87 142.09 409.58 145.89 415.31 C 155.22 413.16 164.52 410.9 173.84 408.77 C 174.3 407.44 174.75 406.11 175.21 404.79 C 161.89 401.71 148.31 399.89 134.79 397.93 M 115.28 416.95 C 123.81 423.55 134.86 418.25 144 416.02 C 140.17 410.34 136.45 404.58 132.71 398.85 C 126.5 404.48 120.85 410.69 115.28 416.95 M 177.94 398.94 C 178.08 399.6 178.36 400.91 178.49 401.57 C 179.68 401.73 180.87 401.9 182.06 402.06 C 181.92 401.4 181.64 400.09 181.51 399.43 C 180.32 399.26 179.13 399.09 177.94 398.94 M 221.6 404.32 C 227 404.61 232.41 404.87 237.82 405.09 C 238.2 403.27 238.59 401.46 238.98 399.66 C 233.13 400.99 227.31 402.5 221.6 404.32 M 119.15 401.09 C 116.79 405.47 114.15 409.77 112.67 414.56 C 118.23 410.92 122.58 405.79 127.27 401.15 C 124.57 401.12 121.86 401.1 119.15 401.09 M 735.67 404.63 C 737.44 404.79 739.23 404.95 741.02 405.12 C 741 404.3 740.95 402.67 740.93 401.85 C 739.16 402.76 737.41 403.68 735.67 404.63 M 177.31 405.25 C 175.75 406.53 177.95 408.86 179.33 407.39 C 180.97 406.13 178.68 403.78 177.31 405.25 M 217.28 407.75 C 224.03 411.6 231.52 417.24 239.41 412.64 C 238.92 410.72 238.42 408.8 237.93 406.89 C 231.04 407.07 224.16 407.36 217.28 407.75 M 370.06 408.19 C 367.23 410.3 364.79 412.88 362 415.05 C 361.99 429.88 361.95 444.72 362.15 459.55 C 368.81 461.7 372.34 467.69 374.05 474.1 C 386.63 479.67 399.93 483.65 413.1 487.64 C 418.25 486.89 422.32 482.57 427.25 480.89 C 429.79 479.63 430.18 476.42 431.16 474.04 C 433.48 465.69 437.03 457.6 438.59 449.09 C 435.84 438.52 431.84 428.32 428.44 417.96 C 426.96 417.5 423.99 416.6 422.51 416.14 C 417.02 414.45 415.83 405.68 408.99 407.17 C 396.04 406.83 382.86 405.87 370.06 408.19 M 436.29 406.9 C 435.96 409.11 435.39 411.34 435.64 413.6 C 438.51 417.61 442.35 420.82 445.82 424.31 C 445.92 418.54 445.97 412.77 446.05 407.02 C 442.83 407.01 439.45 406.85 436.29 406.9 M 448.01 406.29 C 448.09 412.38 448.2 418.47 448.37 424.57 C 452.5 420.91 456.49 417.11 460.59 413.43 C 459.47 411.6 458.46 409.68 457.04 408.08 C 454.78 407.63 450.26 406.74 448.01 406.29 M 479.41 407.58 C 482.93 408.97 486.37 410.69 490.07 411.63 C 494.22 411.49 497.99 409.41 501.65 407.61 C 494.23 407.33 486.82 407.33 479.41 407.58 M 652.43 407.14 C 651.61 409.19 650.77 411.24 649.92 413.27 C 658.53 422.21 667.45 430.85 676.15 439.71 C 681.58 438.24 687.11 439.24 692.59 439.3 C 702.62 430.47 710.83 419.62 720.9 410.74 C 720.24 409.5 719.59 408.26 718.95 407.03 C 696.78 407 674.6 406.89 652.43 407.14 M 175.48 411.37 C 177.79 410.75 180.08 410.04 182.3 409.14 C 179.97 409.7 177.68 410.41 175.48 411.37 M 191.78 412.56 C 181.85 416.07 179.43 427.47 175.74 436.19 C 179.84 434.94 182.8 431.69 185.9 428.91 C 192.17 422.53 198.48 416.17 204.13 409.23 C 199.85 409.65 195.53 410.33 191.78 412.56 M 734.81 408.62 C 733.82 410.7 732.88 412.82 732.07 414.99 C 734.94 413.66 737.69 412.12 740.41 410.52 C 738.54 409.87 736.68 409.23 734.81 408.62 M 500.91 410.31 C 498.86 411.12 496.81 411.93 494.8 412.83 C 503.73 417.12 513.36 419.72 522.68 423.04 C 523.44 422.24 524.22 421.45 525 420.66 C 523.3 418.86 521.59 417.07 519.9 415.28 C 516.44 415.96 512.93 416.54 509.4 416.42 C 505.78 415.85 503.62 412.41 500.91 410.31 M 754.43 410.66 C 759.62 412.45 764.88 414.39 770.41 414.87 C 765.3 412.72 759.91 411.33 754.43 410.66 M 159.76 414.92 C 164.74 414.18 169.59 412.77 174.34 411.1 C 169.31 411.64 164.54 413.39 159.76 414.92 M 216.44 411.98 C 212.07 412.6 207.36 412.4 203.38 414.45 C 194.7 421.97 186.88 430.47 179.27 439.07 C 182.2 439.48 185.34 439.73 187.95 438 C 201.73 430.77 215.59 423.65 229.45 416.57 C 225.29 414.66 221.09 412.17 216.44 411.98 M 464.52 419.82 C 472.36 418.79 479.76 415.72 486.8 412.25 C 478.41 410.74 471.46 416.02 464.52 419.82 M 733.66 416.4 C 736.8 422.61 739.93 428.83 743.06 435.06 C 744.67 434.63 746.28 434.2 747.91 433.78 C 747.95 427.08 748 420.38 748.05 413.69 C 743.02 410.8 737.97 413.14 733.66 416.4 M 175.12 414.04 C 174.05 420.58 172.96 427.13 172.53 433.76 C 177.18 426.93 180.88 419.53 184.31 412.03 C 181.24 412.69 178.17 413.36 175.12 414.04 M 722.11 412.35 C 712.9 421.8 703.06 430.69 694.62 440.86 C 707.37 432.8 720.36 424.85 731.83 415 C 728.54 414.1 725.34 413.29 722.11 412.35 M 326.94 441.33 C 329.19 446.82 327.67 455.35 334.92 457.09 C 340.16 459.82 345.53 462.32 350.87 464.88 C 353.78 462.99 356.81 461.3 359.91 459.75 C 360.03 444.56 360.03 429.36 359.93 414.17 C 358.58 413.68 357.23 413.19 355.89 412.71 C 346.18 422.19 336.75 431.95 326.94 441.33 M 751.84 413.02 C 753.48 420.22 755.12 427.43 757.1 434.55 C 761.22 429 764.89 423.15 768.47 417.25 C 762.92 415.81 757.38 414.41 751.84 413.02 M 234.79 416.58 C 252.62 426.31 270.61 435.83 289.16 444.15 C 280.94 435.39 272.67 426.67 264.01 418.36 C 259.51 419.65 255.02 421.51 250.22 420.83 C 246.36 419.24 242.96 416.8 239.8 414.14 C 238.13 414.95 236.46 415.76 234.79 416.58 M 487.9 414.84 C 479.8 417.13 471.95 420.22 464.04 423.07 C 463.78 424.28 463.54 425.5 463.3 426.73 C 483.14 427.14 503.03 427.53 522.84 426.11 C 515.11 421.78 506.4 419.64 498.16 416.54 C 494.87 415.53 491.41 413.88 487.9 414.84 M 522.35 414.66 C 521.26 415.81 523.18 417.73 524.34 416.65 C 525.36 415.52 523.47 413.63 522.35 414.66 M 148.85 419.24 C 151.92 424.19 155.03 429.13 158.15 434.06 C 161.98 433.15 165.81 432.24 169.68 431.51 C 170.76 425.92 171.95 420.38 173.11 414.82 C 164.96 415.95 156.91 417.62 148.85 419.24 M 430.39 414.54 C 432.96 424.94 435.53 435.56 440.18 445.27 C 442.58 439.59 444.35 433.67 446.38 427.86 C 441.57 422.85 436.55 417.88 430.39 414.54 M 451.73 425.05 C 456.78 423.38 466.1 421.91 463.24 414.4 C 458.99 417.48 455.35 421.28 451.73 425.05 M 628.18 415.25 C 627.02 415.55 625.68 417 626.45 418.21 C 628.17 419.47 630.99 415.11 628.18 415.25 M 633.25 415.04 C 631.67 416.69 630.09 418.36 628.53 420.03 C 629.55 423.57 630.53 427.14 631.47 430.73 C 637.69 432.65 643.85 434.73 650.15 436.42 C 648.29 429.96 646 423.63 643.82 417.28 C 640.26 416.57 636.78 415.83 633.25 415.04 M 653.51 437.42 C 659.92 441.11 667.44 442.25 674.31 444.81 C 674.56 444.09 675.05 442.64 675.3 441.92 C 665.95 432.53 656.98 422.72 646.73 414.31 C 646.38 422.5 649.89 430.31 653.51 437.42 M 773.48 415.45 C 772.55 417.04 775.31 418.26 776.2 416.86 C 777.02 415.32 774.35 414.08 773.48 415.45 M 264.87 415.75 C 273.05 425.32 282.54 433.66 291.17 442.82 C 292.82 442.26 294.47 441.71 296.13 441.16 C 295.28 438.25 294.77 434.81 292.09 432.97 C 283.33 426.75 274.28 420.93 264.87 415.75 M 750.34 416.69 C 750.17 422.38 750.07 428.07 750 433.78 C 751.66 434.19 753.33 434.62 755 435.05 C 753.52 428.9 752.09 422.75 750.34 416.69 M 183.41 442.22 C 183.51 447.04 183.45 451.87 183.37 456.72 C 215.7 473.58 247.97 490.6 280.49 507.09 C 284.71 502.38 290.43 499.55 296.01 496.8 C 295.3 484.63 295.29 472.42 295.14 460.25 C 293.44 456.72 290.06 454.23 288.72 450.46 C 287.03 445.62 282.2 443.16 277.92 440.95 C 262.61 433.25 247.23 425.67 231.93 417.95 C 215.67 425.85 199.73 434.43 183.41 442.22 M 759.06 436.95 C 760.08 438.44 762.12 441.44 763.14 442.93 C 774.79 440.86 785.6 435.42 796.88 431.97 C 796.55 429.43 795.89 426.7 795.74 424.23 C 787.45 422.02 779.15 419.8 770.84 417.7 C 766.62 423.93 762.3 430.13 759.06 436.95 M 693.99 444.04 C 694.63 445.57 695.28 447.11 695.94 448.65 C 707.83 447.42 719.76 449.3 731.67 448.64 C 734.42 445.86 735.82 442.07 737.99 438.86 C 738.34 437.28 740.75 435.86 739.78 434.1 C 737.71 428.77 735.13 423.67 732.7 418.5 C 719.41 426.42 706.93 435.58 693.99 444.04 M 127.48 423.65 C 135.68 429.33 144.28 434.38 152.88 439.43 C 154.24 438.2 155.6 436.98 156.97 435.76 C 153.56 430.46 150.16 425.17 146.8 419.85 C 140.32 420.88 133.9 422.3 127.48 423.65 M 120.34 424.18 C 119.94 426.83 119.55 429.48 119.15 432.15 C 130.11 435.67 140.81 440.16 152.07 442.61 C 142.21 435.54 132.19 427.51 120.34 424.18 M 455.67 426.57 C 457.13 426.75 458.59 426.93 460.06 427.11 C 460.4 426.04 460.73 424.98 461.08 423.92 C 459.26 424.79 457.46 425.66 455.67 426.57 M 447.9 428.98 C 447.95 439.57 448.08 450.16 448.81 460.73 C 453.81 450.67 456.31 439.59 460.18 429.08 C 456.08 429.04 451.99 429.01 447.9 428.98 M 462.15 429.08 C 458.74 439.31 455.22 449.5 452.21 459.86 C 456.69 464.55 459.33 470.46 457.63 477.07 C 472.74 487.37 487.7 497.96 503.11 507.8 C 507.76 509.03 512.85 508.04 517.53 507.25 C 522.87 503.53 527.48 498.71 531.31 493.45 C 533.03 487.43 532.06 481.13 532.28 474.99 C 532.44 463.17 532.21 451.35 531.73 439.54 C 527.32 437.22 523.76 433.64 521.45 429.23 C 501.68 428.85 481.91 428.97 462.15 429.08 M 548.64 429.29 C 553.07 432.45 557.63 435.41 562.14 438.49 C 566.71 435.76 571.4 432.25 576.99 432.16 C 582.26 432.59 586.48 436.24 590.96 438.67 C 595.36 435.45 599.88 432.41 604.35 429.28 C 585.78 428.85 567.2 428.84 548.64 429.29 M 543.62 430.07 C 548.03 433.72 553.01 436.58 558.16 439.07 C 553.57 435.66 548.75 432.57 543.62 430.07 M 594.84 439.07 C 599.99 436.58 604.99 433.71 609.42 430.05 C 604.26 432.55 599.42 435.65 594.84 439.07 M 630.25 432.1 C 629.49 432.85 628.73 433.6 627.97 434.35 C 633.71 440.18 639.44 446.01 644.9 452.11 C 648.64 456.19 652.6 460.56 658.07 462.24 C 656.35 454.7 654.65 447.02 650.94 440.18 C 644.67 436.2 637.04 434.93 630.25 432.1 M 534.19 439.47 C 533.92 456.45 533.6 473.46 534.77 490.42 C 544.35 480.87 553.38 470.8 562.98 461.27 C 560.27 455.19 558.77 448.53 559.49 441.84 C 554.31 439.18 549.09 436.55 543.92 433.88 C 540.69 435.77 537.48 437.69 534.19 439.47 M 602.97 436.89 C 599.4 438.64 595.91 440.55 592.43 442.47 C 592.96 445.79 593.46 449.13 593.76 452.49 C 607.59 456.96 621.85 459.88 635.98 463.23 C 632.02 454.99 627.94 446.82 623.79 438.69 C 616.61 439.35 609.59 431.74 602.97 436.89 M 763.76 445.81 C 763.2 455.88 764.24 465.99 766.92 475.72 C 770.96 476.35 775.04 477.02 779.06 477.87 C 787.38 466.17 794.83 453.86 802.96 442.02 C 800.96 439.32 799.01 436.62 797.08 433.89 C 786.04 438.06 774.86 441.82 763.76 445.81 M 296.68 437.67 C 299.18 441.84 303.01 444.97 305.78 448.96 C 306.65 447.33 307.51 445.69 308.36 444.05 C 304.56 441.77 300.62 439.68 296.68 437.67 M 441.4 449.07 C 441.48 453.27 443.63 457.08 445.49 460.74 C 445.91 452.68 445.8 444.61 445.59 436.56 C 444.07 440.68 442.42 444.78 441.4 449.07 M 625.91 436.65 C 629.59 445.97 634.34 454.82 638.2 464.07 C 642.98 465.22 647.78 466.46 652.62 467.41 C 653.11 466.2 653.61 464.99 654.12 463.79 C 644.96 454.51 636.14 444.79 625.91 436.65 M 653.93 440.7 C 655.86 447.04 657.77 453.38 659.53 459.77 C 664.84 461.35 670.51 461.98 675.4 458.77 C 674.27 454.72 673.16 450.65 672.26 446.55 C 666.15 444.59 660.06 442.56 653.93 440.7 M 781.12 478.77 C 783.94 483.16 787.48 487.62 787.84 493 C 787.43 499.14 782.52 503.71 779.94 509 C 780.45 513.34 783.09 517.03 784.8 520.96 C 788.03 520.38 791.19 519.86 794.48 519.4 C 799.36 494.34 804.23 469.27 809.19 444.22 C 807.73 443.72 806.29 443.22 804.86 442.73 C 796.8 454.65 788.85 466.63 781.12 478.77 M 302.94 454.9 C 306.36 457.79 309.81 460.64 313.41 463.32 C 311.36 458.45 308.15 454.21 305.47 449.69 C 304.61 451.42 303.78 453.15 302.94 454.9 M 695.08 450.7 C 695.06 451.53 695.04 453.2 695.02 454.03 C 703.68 458.32 712.32 462.67 720.98 466.98 C 725.63 463.9 730.32 460.86 735.01 457.83 C 734.59 455.42 734.16 453.01 733.77 450.6 C 720.87 450.46 707.97 450.75 695.08 450.7 M 439.96 453.57 C 436.02 463.5 433.35 473.88 430.34 484.12 C 432.89 482.94 435.4 481.67 437.92 480.41 C 437.26 476.77 436.61 473.1 436.71 469.39 C 437.01 466.15 439.48 463.79 441.25 461.27 C 443.24 458.96 440.83 455.91 439.96 453.57 M 593.54 455.14 C 590.52 459.3 586.66 462.72 582.89 466.18 C 590.36 489.05 598.46 511.72 605.36 534.79 C 607.16 538.25 607.23 543.75 611.37 545.5 C 618.63 549 626.36 551.42 633.65 554.86 C 635.76 553.13 638.03 551.55 639.99 549.64 C 639.19 543.7 630.88 541.12 633.28 534.36 C 635.12 529.19 642.73 529.66 644.29 524.4 C 647.3 515.73 650.16 506.98 652.38 498.08 C 648.96 486.82 642.52 476.8 637.74 466.12 C 623.02 462.38 608.46 458.01 593.54 455.14 M 301.64 456.02 C 300.22 456.58 298.8 457.15 297.39 457.73 C 296.99 471.01 296.87 484.3 297.31 497.59 C 298.47 497.73 299.64 497.88 300.82 498.03 C 304.06 487.36 308.72 477.06 310.91 466.14 C 308.37 462.31 304.79 459.31 301.64 456.02 M 324.13 459.17 C 327.69 467.02 331.52 474.74 335.15 482.56 C 340.62 481.61 346.06 480.42 351 477.73 C 350.45 474.16 350.01 470.53 349.69 466.95 C 342.63 462.88 335.4 459.13 328.05 455.64 C 326.74 456.81 325.44 457.99 324.13 459.17 M 690.12 459.18 C 693.65 466.25 697.16 473.34 700.57 480.49 C 707.03 476.76 713.09 472.39 719.27 468.2 C 710.9 463.91 702.5 459.72 694.03 455.68 C 692.72 456.84 691.42 458.01 690.12 459.18 M 672.53 463.19 C 672.45 467.61 673.29 471.97 673.69 476.37 C 676.41 470.78 678.06 464.75 679.96 458.86 C 677.3 459.95 674.58 461.11 672.53 463.19 M 723.42 468.18 C 724.88 468.86 726.37 469.55 727.85 470.24 C 731.06 466.52 734.28 462.82 737.31 458.95 C 732.44 461.64 727.87 464.85 723.42 468.18 M 315.19 461.19 C 314.7 462.48 314.21 463.76 313.72 465.06 C 320.12 471.64 326.04 478.73 333.2 484.52 C 330.74 475.82 325.87 468.08 321.98 459.99 C 319.71 460.39 317.45 460.79 315.19 461.19 M 685.27 460.5 C 685.09 467.79 685 475.09 684.89 482.39 C 689.61 484.18 694.55 485.51 699.37 482.96 C 695.65 475.24 692.01 467.47 688.07 459.87 C 687.37 460.03 685.97 460.34 685.27 460.5 M 756.48 463.07 C 759.07 468.02 761.7 472.99 764.78 477.69 C 764.35 471.6 762.63 465.71 761.23 459.82 C 759.64 460.9 758.06 461.98 756.48 463.07 M 675.91 476.97 C 678.27 478.1 680.64 479.21 683.03 480.3 C 682.89 473.65 682.58 466.99 682.22 460.36 C 679.82 465.78 677.98 471.42 675.91 476.97 M 737.1 462.01 C 734.65 465.16 732.18 468.3 729.75 471.47 C 738.28 475.51 746.56 480.07 754.93 484.42 C 757.26 482.21 759.59 480 761.96 477.82 C 759.66 473.42 757.38 469.01 755.07 464.63 C 748.97 464.71 742.88 463.98 737.1 462.01 M 536.41 491.39 C 531.65 495.98 535.02 503.03 535.71 508.7 C 546.43 493.76 557.21 478.66 565.99 462.5 C 555.34 471.24 545.87 481.4 536.41 491.39 M 562.84 471.88 C 555.25 484.12 546.66 495.78 539.67 508.36 C 539.85 512.7 540.8 518.17 545.9 519.1 C 565.98 527.09 585.91 535.49 606.09 543.19 C 597.98 517.45 589.64 491.78 580.81 466.28 C 576.61 466.18 572.42 465.19 568.23 465.51 C 565.65 466.68 564.59 469.88 562.84 471.88 M 640.02 466.97 C 644.54 476.09 649.07 485.21 653.7 494.28 C 655.06 490.59 656.55 486.92 657.53 483.12 C 654.85 478.66 651.62 474.47 650.61 469.19 C 647.07 468.45 643.52 467.69 640.02 466.97 M 312.98 467.73 C 309.58 478.17 306.52 488.72 302.73 499.03 C 305.47 500.8 308.18 502.63 310.89 504.45 C 318.35 499.11 326.82 494.29 331.47 486.08 C 325.41 479.85 319.27 473.71 312.98 467.73 M 701.19 483.21 C 704.45 484.36 707.76 485.44 711.07 486.52 C 716.15 481.43 721.21 476.29 725.71 470.66 C 715.73 469.14 708.98 478.65 701.19 483.21 M 727.29 472.88 C 721.92 478.72 715.23 483.9 712.3 491.51 C 725.85 492.43 739.46 491.91 753.04 491.96 C 753.44 490 753.82 488.04 754.19 486.08 C 745.26 481.59 736.33 477.11 727.29 472.88 M 366.95 480.95 C 373.54 493.53 379.26 506.55 385.95 519.07 C 395.63 512.08 405.62 505.54 415.61 499 C 415.38 496.33 414.95 493.34 414.88 490.79 C 400.79 485.57 386.55 480.67 372.14 476.45 C 370.19 477.68 368.63 479.4 366.95 480.95 M 672.17 477.25 C 670.53 477.61 671.24 480.24 672.83 479.75 C 674.45 479.38 673.74 476.75 672.17 477.25 M 454.46 478.65 C 463.02 495.58 474.67 510.74 484.98 526.61 C 489.16 526.6 493.36 527.44 497.53 527 C 500.55 525.62 502.79 523.02 505.43 521.08 C 503.88 515.89 504.17 509.15 498.19 506.79 C 483.67 497.34 469.91 486.56 454.46 478.65 M 674.67 479.16 C 675.39 482.88 678.08 485.56 681.47 487.04 C 682.07 485.66 682.67 484.28 683.28 482.91 C 680.41 481.63 677.53 480.37 674.67 479.16 M 352.76 479.84 C 347.84 486.11 351.82 494.2 348.56 501.05 C 352.33 504.79 356.09 508.52 359.89 512.24 C 359.99 502.32 359.96 492.4 359.89 482.49 C 357.49 481.67 355.12 480.77 352.76 479.84 M 434.52 485.89 C 435.3 487.4 436.09 488.92 436.89 490.43 C 438.41 486.94 439.99 483.48 441.31 479.91 C 439.02 481.88 436.77 483.88 434.52 485.89 M 664 482.3 C 664.1 489.69 664.25 497.08 664.55 504.48 C 667.68 496.68 671.6 488.53 671.06 479.95 C 668.7 480.74 666.36 481.54 664 482.3 M 348.11 480.99 C 346.73 480.96 345.43 483.19 347.08 483.83 C 349.04 484.68 350.78 480.81 348.11 480.99 M 442.81 482.26 C 440.25 487.67 437.7 493.1 435.48 498.68 C 451.54 508.83 466.44 520.87 483.17 529.94 C 474.76 512.84 462.83 497.75 452.86 481.57 C 449.52 482 446.17 482.22 442.81 482.26 M 361.97 482.99 C 361.98 493.5 361.51 504.05 362.54 514.54 C 365.74 519.23 370.65 522.44 374.78 526.27 C 377.89 524.38 381 522.48 384.14 520.63 C 377.93 507.58 371.34 494.72 364.87 481.79 C 363.9 482.19 362.94 482.59 361.97 482.99 M 660.81 481.63 C 658.68 486.64 656.85 491.76 654.94 496.86 C 656.01 499.19 657.08 501.54 658.16 503.89 C 659.5 503.93 660.84 503.98 662.2 504.03 C 661.9 496.54 661.58 489.07 660.81 481.63 M 695.58 486.54 C 697.21 487.08 698.86 487.58 700.53 488.07 C 700.51 486.71 700.49 485.37 700.47 484.03 C 698.83 484.84 697.2 485.69 695.58 486.54 M 674.1 484.14 C 671.5 491.42 667.36 498.69 667.73 506.6 C 677.7 504.28 679.84 491.54 674.1 484.14 M 692.76 488 C 692.42 489.33 692.09 490.68 691.78 492.03 C 693.48 491.82 696.88 491.41 698.57 491.21 C 696.65 490.1 694.71 489.03 692.76 488 M 692.47 494.62 C 693.98 495.5 695.53 496.35 697.1 497.16 C 697.38 496.32 697.93 494.65 698.21 493.81 C 696.29 494.06 694.37 494.33 692.47 494.62 M 712.93 494.86 C 718.39 499.14 724.82 501.92 730.97 505.07 C 746.34 512.53 761.59 520.27 776.7 528.27 C 778.78 526.02 780.94 523.85 783.18 521.76 C 781.22 517.7 779.23 513.66 777.22 509.64 C 771.51 510.37 764.71 510.93 759.96 507.04 C 756.29 503.47 753.99 498.85 752.33 494.09 C 739.19 493.9 726.03 493.82 712.93 494.86 M 315.85 503.97 C 320.22 501.96 324.52 499.82 328.9 497.83 C 328.87 497.04 328.81 495.45 328.78 494.66 C 324.41 497.68 320.09 500.77 315.85 503.97 M 519.31 514.94 C 524.42 513.98 528.25 510.4 531.3 506.48 C 532.35 503.2 532.55 499.72 533.08 496.34 C 527.27 501.31 518.68 506.34 519.31 514.94 M 691.14 497.3 C 689.47 497.21 688.76 500.22 690.85 499.97 C 692.58 500.08 693.19 497.11 691.14 497.3 M 707.8 501.46 C 716.27 505.45 725.01 508.82 733.7 512.28 C 742.92 515.74 751.76 520.22 761.19 523.12 C 745.83 513.39 728.98 506.39 712.92 497.96 C 711.22 499.13 709.51 500.29 707.8 501.46 M 328.95 499.97 C 323.48 502.81 317.92 505.5 312.35 508.16 C 312.59 511.83 312.81 515.52 313.03 519.22 C 323.16 523.08 333.28 527.39 343.88 529.74 C 347.4 528.36 349.42 524.35 352.31 521.9 C 349.54 516.33 347.52 510.27 343.96 505.19 C 339.12 503.04 333.69 502.45 328.95 499.97 M 697.34 500.59 C 689.29 504.88 682.06 510.56 674.63 515.82 C 698.81 520.72 723.23 524.32 747.54 528.55 C 756.95 530.01 766.31 532.11 775.84 532.64 C 770.91 528.84 764.93 526.93 759.21 524.71 C 742.09 517.92 725.07 510.89 708.03 503.92 C 704.55 502.62 701.12 500.64 697.34 500.59 M 413.68 502.58 C 404.47 508.23 395.71 514.57 386.69 520.5 C 389.94 528.05 393.67 535.38 397.21 542.81 C 401.08 542.45 404.93 542.09 408.82 541.79 C 412.64 528.5 417.6 515.59 421.51 502.33 C 418.94 502.03 416.04 500.98 413.68 502.58 M 434.06 500.93 C 426.92 515.13 419.71 529.31 412.85 543.65 C 415.62 546.65 418.33 549.72 420.87 552.94 C 440.46 549.27 459.57 543.46 478.96 538.87 C 478.95 537.6 478.94 536.35 478.94 535.09 C 464.09 523.56 449.12 512.19 434.06 500.93 M 644.9 530.59 C 647.9 528.3 650.66 525.72 653.45 523.19 C 651.79 515.49 654.84 508.12 655.17 500.53 C 650.72 510.16 647.51 520.32 644.9 530.59 M 680.09 501.03 C 679.08 502.76 678.07 504.5 677.07 506.24 C 680.49 504.63 683.87 502.95 687.27 501.28 C 685.48 501.22 681.89 501.09 680.09 501.03 M 345.63 501.81 C 347.95 508.48 351.35 514.7 354.28 521.12 C 356.53 520.54 358.77 519.93 361.02 519.34 C 357.43 512.29 351.61 506.82 345.63 501.81 M 423.15 504.12 C 419.31 516.13 414.48 527.89 411.93 540.28 C 418.43 528.43 423.74 515.98 429.99 504 C 428.28 504.03 424.86 504.09 423.15 504.12 M 671.86 509.06 C 673.19 507.28 674.46 505.45 675.67 503.59 C 674.28 505.33 673.02 507.16 671.86 509.06 M 672.46 512.91 C 678.07 511.21 682.82 507.68 687.45 504.22 C 682.12 506.49 676.97 509.24 672.46 512.91 M 520.43 515.98 C 519.35 518.09 518.25 520.18 517.15 522.28 C 520.27 520.7 523.34 519.04 526.43 517.41 C 524.42 516.91 522.42 516.43 520.43 515.98 M 673.48 518.09 C 672.32 520.13 671.13 522.15 669.91 524.15 C 679.12 538.18 688.12 552.36 697.7 566.15 C 705.73 564.92 714.2 566.1 719.71 572.57 C 738.27 562.75 757.11 553.49 775.84 544 C 775.45 541.05 774.94 537.97 774.71 535.06 C 741.01 529.13 707.28 523.35 673.48 518.09 M 540.78 518.96 C 537.57 521.54 532.62 522.91 531.37 527.3 C 528.4 538.01 525.98 548.9 523.81 559.81 C 548.76 563.21 573.66 566.96 598.6 570.5 C 604 571.11 609 568.31 614.12 566.99 C 611.92 560.04 609.96 552.94 606.54 546.48 C 604.86 544.98 602.71 544.18 600.7 543.27 C 580.71 535.21 560.59 527.46 540.78 518.96 M 513.07 526.17 C 513.02 533.44 513 540.72 512.98 548.01 C 513.74 548.01 515.25 548 516.01 547.99 C 520.29 539.4 524.57 530.82 528.86 522.25 C 528.14 521.48 527.42 520.72 526.71 519.96 C 522.15 522.01 517.61 524.1 513.07 526.17 M 465.54 522.19 C 470.18 526.13 475.14 529.73 480.39 532.82 C 475.98 528.54 471.16 524.73 465.54 522.19 M 498.9 530.65 C 503.01 529.38 506.95 527.64 510.97 526.09 C 510.93 525.07 510.86 523.04 510.83 522.02 C 505.24 521.94 501.83 526.52 498.9 530.65 M 375.63 528.01 C 381.96 534.16 387.41 541.66 395.32 545.91 C 393.17 537.7 389.17 530.17 385.57 522.55 C 382.21 524.27 378.92 526.15 375.63 528.01 M 655.12 524.59 C 653.76 524.54 652.06 526.19 652.79 527.55 C 654.31 528.65 657.01 525.54 655.12 524.59 M 664.03 526.2 C 664.03 534.69 664.06 543.18 664.15 551.69 C 673.96 557.88 683.61 564.36 693.04 571.14 C 694.13 570.28 695.23 569.42 696.34 568.58 C 687.3 553.86 677.51 539.6 668.08 525.13 C 666.72 525.49 665.37 525.84 664.03 526.2 M 651.99 540.31 C 655.51 535.61 658.77 530.64 661.05 525.21 C 655.9 528.64 654.11 534.84 651.99 540.31 M 517.86 549.17 C 519.47 550.82 521.1 552.47 522.73 554.12 C 524.96 545.01 527.62 535.96 529.01 526.67 C 524.82 533.93 521.39 541.58 517.86 549.17 M 501.51 532.15 C 501.48 536.46 500.6 540.69 499.3 544.79 C 500.95 546.53 502.6 548.27 504.26 550.02 C 506.46 549.21 508.67 548.41 510.91 547.66 C 510.92 541.01 510.92 534.36 510.89 527.72 C 507.76 529.19 504.63 530.67 501.51 532.15 M 649.29 538.78 C 651.22 535.79 652.76 532.58 653.96 529.23 C 650.89 531.44 647.89 534.21 649.29 538.78 M 652.54 543.27 C 655.6 545.46 658.69 547.59 661.91 549.55 C 661.86 543.14 661.68 536.72 661.47 530.34 C 658.28 534.5 655.45 538.91 652.54 543.27 M 378.29 533.81 C 377.87 537.24 377.46 540.68 377.03 544.13 C 381.72 546.35 386.42 548.61 391.41 550.08 C 389.57 543 383.05 538.82 378.29 533.81 M 420.13 556.91 C 445.52 558.99 471.03 557.78 496.48 557.83 C 495.27 555.09 494.57 551.97 492.52 549.72 C 487.83 546.99 482.83 544.7 478.71 541.1 C 459.12 546.08 439.12 549.88 420.13 556.91 M 642.06 544.82 C 642.05 546.93 642.05 549.05 642.06 551.18 C 643.03 550.79 644.01 550.4 645 550.01 C 644.99 548.66 644.99 547.32 645 545.99 C 644.01 545.59 643.03 545.2 642.06 544.82 M 650.36 544.66 C 648 551.16 652.24 557.22 654.74 563 C 657.15 563.36 659.56 563.76 661.98 564.15 C 661.95 560.13 661.93 556.12 661.92 552.12 C 658.06 549.65 654.22 547.12 650.36 544.66 M 495.28 547.35 C 496.08 550.9 496.99 554.43 497.93 557.95 C 498.88 557.94 500.77 557.94 501.72 557.94 C 502.49 553.05 499.12 549.68 495.28 547.35 M 609.87 547.69 C 611.68 553.93 613.89 560.03 616.07 566.15 C 622.13 564.15 628.16 562.05 634.2 559.98 C 628.77 552.04 618.2 551.03 609.87 547.69 M 664.05 553.87 C 664.06 557.78 664.09 561.7 664.13 565.62 C 673.74 568.58 683.13 572.3 692.89 574.79 C 684.79 566 673.79 560.56 664.05 553.87 M 649.29 557.79 C 647.97 558.98 649.75 561.64 651.32 560.6 C 652.5 559.43 650.8 556.82 649.29 557.79 M 498.99 559.81 C 502.06 570.64 505.61 581.36 510.32 591.6 C 510.57 584.7 510.72 577.82 510.73 570.94 C 506.12 568.04 502.42 563.99 498.99 559.81 M 523.09 561.73 C 520.6 570.3 518.42 578.95 516.55 587.68 C 515.18 592.39 520.32 595.03 522.81 598.18 C 546.99 588.62 572.25 582.1 596.36 572.36 C 572.05 568.16 547.61 564.4 523.09 561.73 M 616.87 568.13 C 617.25 569.79 617.65 571.45 618.06 573.11 C 627.45 574.86 636.93 576.14 646.45 576.97 C 645.29 574.1 644.51 570.97 642.62 568.46 C 638.93 566.65 635.36 563.62 631.1 563.34 C 626.22 564.53 621.57 566.42 616.87 568.13 M 647.3 563.24 C 650.07 566.39 653.15 569.22 656.26 572.04 C 655.52 569.28 654.76 566.54 654.01 563.81 C 651.77 563.58 649.53 563.39 647.3 563.24 M 656.83 565.04 C 657.23 566.71 657.66 568.39 658.09 570.07 C 659.21 569.89 660.34 569.73 661.49 569.56 C 661.64 568.93 661.96 567.66 662.12 567.03 C 660.35 566.36 658.59 565.7 656.83 565.04 M 512.99 570.14 C 513.08 577.21 513.22 584.29 513.46 591.37 C 515.71 583.63 517.51 575.76 519.16 567.87 C 517.1 568.62 515.05 569.38 512.99 570.14 M 663.81 567.82 C 668.05 571.33 671.36 575.8 675.47 579.45 C 680.46 579.79 685.47 579.95 690.5 579.91 C 690.65 579.18 690.96 577.71 691.11 576.98 C 682.2 573.38 673.05 570.41 663.81 567.82 M 607.72 571.53 C 610.39 571.94 613.34 572.63 616.08 573.09 C 615.65 571.67 615.21 570.25 614.79 568.84 C 612.42 569.72 610.06 570.61 607.72 571.53 M 645.93 568.55 C 646.46 572.6 647.92 576.76 651.73 578.83 C 649.85 575.34 648.07 571.86 645.93 568.55 M 650.45 570.79 C 649.54 572.23 651.75 574.45 653.21 573.55 C 653.99 572.13 651.86 570 650.45 570.79 M 594.67 575.49 C 579.72 580.55 564.74 585.51 549.87 590.8 C 541.32 593.8 532.45 596.02 524.34 600.14 C 522.81 605.46 516.01 611.19 519.96 616.97 C 529.98 637.09 540.15 657.14 549.91 677.39 C 554.63 677.66 559.38 678.08 563.9 679.58 C 570.18 673.3 576.56 667.12 582.66 660.67 C 597.54 644.19 613.84 629.06 629.27 613.11 C 624.86 600.48 620.68 587.78 616.93 574.95 C 609.55 574.05 601.75 572.37 594.67 575.49 M 619.11 575.7 C 622.78 587.65 626.51 599.58 630.63 611.39 C 637.48 605.13 644.02 598.54 650.57 591.97 C 649.49 587.65 648.28 583.39 646.99 579.13 C 637.7 577.92 628.45 576.35 619.11 575.7 M 649.46 579.23 C 650.2 582.94 651.47 586.58 653.71 589.67 C 652.96 585.96 651.67 582.33 649.46 579.23 M 674.13 582.04 C 672.66 585.04 670.66 587.81 669.64 591 C 671.01 597.12 674.88 602.37 677.33 608.09 C 682.96 602.61 688.47 597.01 693.94 591.37 C 692.78 588.27 691.65 585.2 690.59 582.09 C 685.09 582.05 679.6 582.04 674.13 582.04 M 652.82 590.61 C 653.57 593.03 654.33 595.45 655.08 597.89 L 655.92 597.89 C 656.66 595.45 657.42 593.03 658.18 590.61 C 656.39 590.58 654.6 590.58 652.82 590.61 M 664.07 591.84 C 666.82 596.11 669.54 600.4 672.47 604.56 C 670.66 599.98 668.76 595.44 666.89 590.9 C 666.19 591.14 664.78 591.61 664.07 591.84 M 661.68 616.48 C 662.03 608.04 661.69 599.58 661.22 591.16 C 655.42 598.72 657.22 608.63 661.68 616.48 M 679.21 610.1 C 679.17 611.98 679.69 613.81 680.16 615.62 C 686.65 608.9 691.7 600.92 696.04 592.69 C 690.1 598.14 684.02 603.61 679.21 610.1 M 632.25 614.12 C 633.16 622.38 637.24 629.91 639.36 637.89 C 640.51 637.9 641.67 637.92 642.84 637.95 C 646.27 627.18 650.47 616.66 653.33 605.72 C 653.66 601.6 652.74 597.55 651.91 593.55 C 645.03 600.07 638.08 606.65 632.25 614.12 M 664.18 595.77 C 664.08 602.77 664.05 609.78 664.05 616.79 C 665.31 617.1 666.58 617.42 667.86 617.75 C 669.98 615.52 672.1 613.29 674.24 611.08 C 670.89 605.97 667.55 600.85 664.18 595.77 M 683.96 615.73 C 684.95 616.13 685.95 616.53 686.96 616.94 C 689.55 611.19 692.32 605.52 694.9 599.76 C 690.94 604.86 687.42 610.28 683.96 615.73 M 655.6 606.61 C 651.44 617.4 647.75 628.39 644.95 639.62 C 648.49 636.51 652.57 633.7 654.82 629.45 C 656.07 625.6 656.46 621.54 657.55 617.65 C 658.71 613.86 656.82 610.11 655.6 606.61 M 669.02 619.17 C 669.84 620.69 670.65 622.21 671.49 623.74 C 674.12 622.4 676.73 620.97 679.2 619.35 C 678.36 617.71 676.69 614.45 675.85 612.82 C 673.57 614.93 671.29 617.04 669.02 619.17 M 629.66 615.77 C 607.85 638.15 584.74 659.35 564.56 683.25 C 570.71 681.28 576.23 677.83 582.02 675.03 C 597.42 667.04 613.21 659.79 628.5 651.57 C 633.69 649.28 634.45 643.05 636.72 638.43 C 635.9 630.58 632.41 623.14 629.66 615.77 M 671.66 624 C 670.48 626.51 669.34 629.04 668.22 631.58 C 670.46 630.16 672.73 628.75 674.69 626.96 C 673.75 625.9 672.68 624.95 671.66 624 M 671.53 634.72 C 673.39 632.79 675.25 630.86 677.06 628.88 C 675.08 630.69 673.24 632.65 671.53 634.72 M 663.36 637.12 C 664.1 637.71 665.59 638.87 666.34 639.45 C 667.56 637.14 668.76 634.83 669.93 632.5 C 667.67 633.95 665.47 635.48 663.36 637.12 M 651.16 642.1 C 649.82 642.19 648.67 644.45 650.3 645.02 C 652.33 645.83 653.78 641.77 651.16 642.1 M 653.72 646.48 C 650.05 650.79 647.98 656.12 645.81 661.27 C 650.17 657.34 656.5 653.17 653.72 646.48 M 595.49 670.61 C 586.11 675.51 576.47 679.91 567.45 685.47 C 583.12 682.29 598.48 677.79 614.04 674.09 C 617.48 672.65 622.17 672.93 624.67 669.71 C 628.82 663.72 633.3 657.72 635.65 650.74 C 621.8 656.37 608.78 663.82 595.49 670.61 M 642.21 660.76 C 644.43 657.53 646.51 654.22 648.37 650.78 C 645.01 653.14 640.66 655.43 642.21 660.76 M 651.05 677.2 C 654.29 669.09 657.16 660.76 658.71 652.15 C 653.31 659.27 653.07 668.78 651.05 677.2 M 653.23 658.03 C 652.02 659.05 649.59 661.08 648.38 662.1 C 648.56 665.15 648.57 668.14 648.62 671.22 C 647 673.2 645.02 674.94 643.72 677.15 C 643.65 681.25 644.71 685.29 645.33 689.33 C 648.25 678.97 651.05 668.57 653.23 658.03 M 629.08 666.58 C 627.77 666.61 626.76 668.49 627.69 669.51 C 629.32 670.53 631.05 667.03 629.08 666.58 M 629.01 672.02 C 627.54 675.76 626.02 679.51 624.83 683.36 C 628.8 679.94 632.14 675.83 634.92 671.39 C 632.94 671.58 630.97 671.8 629.01 672.02 M 567.98 687.84 C 567.98 689.26 567.98 690.7 567.99 692.14 C 580.29 696.06 593.01 698.83 606.02 697.9 C 611.22 690.07 616.36 682.2 621.31 674.21 C 603.56 678.84 585.71 683.1 567.98 687.84 M 620.56 705.56 C 622.3 706.03 624.05 706.52 625.79 707.01 C 628.88 701.63 634.16 698.32 639.88 696.22 C 639.8 689.13 639.6 682.06 639.26 675 C 631.62 684.24 626.54 695.24 620.56 705.56 M 614.01 703.84 C 615.29 704.25 616.59 704.66 617.9 705.09 C 623.58 695.82 629.62 686.72 634.22 676.86 C 625.28 684 617.91 693.01 614.01 703.84 M 610.82 697.19 C 615.79 693.07 619.71 687.85 622.28 681.93 C 618.09 686.73 614.25 691.82 610.82 697.19 M 642.26 691.12 C 641.16 692.19 641.33 695.46 643.2 695.42 C 644.12 694.31 643.87 691.3 642.26 691.12 M 567.39 694.53 C 572.95 698.17 579.01 700.97 584.91 704.02 C 586.04 702.47 587.19 700.92 588.31 699.36 C 581.36 697.65 574.45 695.75 567.39 694.53 M 564.14 696.67 C 565.1 701.12 567.99 704.71 570.86 708.12 C 577.39 715.87 583.65 723.86 590.64 731.21 C 591.12 729.85 591.61 728.5 592.11 727.15 C 589.55 724.63 586.9 722.14 584.8 719.23 C 582.3 715.23 583.41 710.21 583.44 705.81 C 577.18 702.42 570.83 699.13 564.14 696.67 M 609.97 703.48 C 612.04 701.48 613.65 699.09 614.97 696.55 C 612.99 698.62 611.29 700.94 609.97 703.48 M 559.08 702.22 C 563.75 721.15 567.99 740.19 572.95 759.06 C 572.98 762.92 575.68 765.51 578.44 767.65 C 581.62 758.72 584.95 749.83 587.48 740.69 C 588.06 738.98 586.91 737.4 586.1 736.01 C 578.43 724.09 569.31 713.19 561.85 701.12 C 560.92 701.48 560 701.84 559.08 702.22 M 612.73 705.88 C 613.14 707.69 613.57 709.51 614.02 711.33 C 615 709.79 615.99 708.25 616.95 706.71 C 615.54 706.42 614.13 706.14 612.73 705.88 M 618.17 707.41 C 618.12 708.37 618.01 710.28 617.96 711.24 C 620.82 710.78 623.7 710.31 626.58 709.85 C 623.85 708.89 620.93 708.03 618.17 707.41 M 612.33 718.45 C 610.96 721.17 608.73 723.72 608.32 726.83 C 609.85 730.49 612.14 733.8 614.15 737.22 C 619.29 732.21 624.35 727.13 629.4 722.03 C 627.05 718.58 626.84 711.5 620.91 713.17 C 616.33 711.22 614.3 715.6 612.33 718.45 M 577.94 719.92 C 581.39 725.59 585.15 731.16 589.76 735.98 C 587.21 729.75 582.3 724.89 577.94 719.92 M 630.22 724.18 C 625.34 729.15 620.43 734.09 615.53 739.05 C 628.33 761.31 641.28 783.5 654.86 805.3 C 651.85 779.2 646.28 753.48 642.8 727.45 C 638.54 726.58 634.35 725.52 630.22 724.18 M 596.76 740.25 C 599.97 735.76 603.46 731.21 604.57 725.69 C 600.54 729.61 598.47 735 596.76 740.25 M 648.74 743.34 C 648.61 737.3 647.72 731.32 646.08 725.52 C 645.76 731.55 647.22 737.53 648.74 743.34 M 591.39 733.42 C 592.88 734.61 594.37 735.83 595.85 737.04 C 597.3 733.49 598.82 729.98 600.16 726.39 C 595.55 726.47 593.09 729.78 591.39 733.42 M 599.19 741.76 C 600.53 744.24 602.41 746.38 604.03 748.71 C 606.28 746.37 608.51 743.99 610.55 741.47 C 610.64 737.39 607.7 733.92 606.43 730.2 C 603.62 733.75 600.5 737.38 599.19 741.76 M 591.3 735.66 C 591.26 737.28 591.25 738.91 591.24 740.55 C 592.03 740.62 593.59 740.77 594.38 740.85 C 593.37 739.1 592.35 737.37 591.3 735.66 M 583.93 759.28 C 586.84 753.55 591.53 747.88 591.03 741.09 C 586.87 746.28 585.63 753.01 583.93 759.28 M 605.29 748.53 C 612.12 759.18 620.69 768.62 629.05 778.1 C 623.91 766.13 617.55 754.74 612.44 742.76 C 610.04 744.67 607.66 746.59 605.29 748.53 M 596.07 743.57 C 596.84 747.07 598.49 750.27 600.58 753.16 C 603.02 748.86 599.83 745.41 596.07 743.57 M 615.1 743.77 C 620.33 755.15 626.32 766.17 631.39 777.65 C 636.42 788.94 644.71 798.27 652.9 807.37 C 648.04 797.15 641.47 787.87 636.03 777.98 C 629.04 766.58 622.97 754.6 615.1 743.77 M 583.82 768.07 C 588.86 763.56 593.67 758.81 598.46 754.05 C 597.38 752.22 596.28 750.4 595.21 748.59 C 590.89 754.76 586.92 761.19 583.82 768.07 M 601.72 751.27 C 604.74 760.67 611.12 768.32 616.75 776.24 C 623.61 785.74 629.85 795.7 637.23 804.83 C 639.19 807.86 642.32 809.69 645.37 811.42 C 641.07 799.19 634.76 787.59 626.12 777.89 C 618.2 768.83 611.42 758.58 601.72 751.27 M 585.58 770.04 C 586.52 773.91 587.09 777.82 587.6 781.79 C 603.16 789.47 618.2 798.21 634.11 805.19 C 623.8 787.97 611.07 772.39 600.26 755.5 C 594.71 759.64 590.38 765.11 585.58 770.04 M 588.53 785.35 C 611.13 802.22 633.25 819.75 656.06 836.34 C 651.51 828.58 646.42 821.13 641.09 813.9 C 638.01 808.7 632.04 806.68 627.05 803.91 C 614.22 797.7 601.66 790.92 588.53 785.35 M 641.85 797.79 C 644.98 805.06 647.71 814.31 656.38 816.41 C 652.42 809.57 647.21 803.54 641.85 797.79 M 643.29 812.19 C 646.3 817.9 649.96 823.24 653.98 828.3 C 651.62 822.28 649.28 815.55 643.29 812.19 M 650.98 816.94 C 651.86 818.66 652.76 820.4 653.67 822.14 C 654.13 820.8 654.61 819.49 655.08 818.18 C 653.7 817.75 652.34 817.34 650.98 816.94 M 656.93 826.28 C 657.96 828.9 659.05 831.54 660.22 834.14 C 659.43 831.39 658.36 828.74 656.93 826.28 Z" stroke-linecap="round"/>
</g>
</svg>